<svg xmlns="http://www.w3.org/2000/svg" id="azulejos" viewBox="0 0 248 186">
  <defs>
    <clipPath id="clip-path">
      <rect width="248" height="186" x="-.02" class="cls-1"/>
    </clipPath>
    <clipPath id="clip-path-2">
      <rect width="62" height="62" x="-.02" y="124" class="cls-1"/>
    </clipPath>
    <clipPath id="clip-path-3">
      <rect width="62" height="62" x="123.98" y="124" class="cls-2"/>
    </clipPath>
    <clipPath id="clip-path-4">
      <rect width="62" height="62" x="61.98" y="124" class="cls-3"/>
    </clipPath>
    <clipPath id="clip-path-5">
      <rect width="62" height="62" x="-.02" y="62" class="cls-2"/>
    </clipPath>
    <clipPath id="clip-path-6">
      <rect width="62" height="62" x="123.98" y="62" class="cls-2"/>
    </clipPath>
    <clipPath id="clip-path-7">
      <rect width="62" height="62" x="61.98" class="cls-1"/>
    </clipPath>
    <clipPath id="clip-path-8">
      <rect width="62" height="62" x="123.98" class="cls-2"/>
    </clipPath>
    <style>
      .cls-1{fill:none}.cls-2{fill:#e6c8aa}.cls-3{fill:#5f5251}.cls-6{fill:#b88e6e}.cls-7{fill:#d8b086}.cls-9{fill:#88766a}
    </style>
  </defs>
  <g clip-path="url(#clip-path)">
    <g clip-path="url(#clip-path-2)">
      <polygon points="6.78 157.47 -5.81 149.79 -5.81 158.79 6.78 166.46 6.78 157.47" class="cls-3"/>
      <polygon points="6.78 130.48 -5.81 122.81 -5.81 131.8 6.78 139.47 6.78 130.48" class="cls-2"/>
      <polygon points="6.78 121.44 -5.81 113.77 -5.81 122.77 6.78 130.44 6.78 121.44" class="cls-3"/>
      <polygon points="6.78 148.47 -5.81 140.8 -5.81 149.79 6.78 157.47 6.78 148.47" class="cls-2"/>
      <polygon points="6.78 139.47 -5.81 131.8 -5.81 140.8 6.78 148.47 6.78 139.47" class="cls-3"/>
      <polygon points="6.78 166.46 -5.81 158.79 -5.81 167.78 6.78 175.46 6.78 166.46" class="cls-2"/>
      <polygon points="6.78 175.46 -5.81 167.78 -5.81 176.78 6.78 184.45 6.78 175.46" class="cls-3"/>
      <polygon points="-5.81 176.78 -5.81 185.77 6.78 193.44 6.78 184.45 -5.81 176.78" class="cls-2"/>
      <polygon points="6.78 157.47 19.37 149.79 19.37 158.79 6.78 166.46 6.78 157.47" class="cls-2"/>
      <polygon points="6.78 130.48 19.37 122.81 19.37 131.8 6.78 139.47 6.78 130.48" class="cls-3"/>
      <polygon points="6.78 121.44 19.37 113.77 19.37 122.77 6.78 130.44 6.78 121.44" class="cls-2"/>
      <polygon points="6.78 148.47 19.37 140.8 19.37 149.79 6.78 157.47 6.78 148.47" class="cls-3"/>
      <polygon points="6.78 139.47 19.37 131.8 19.37 140.8 6.78 148.47 6.78 139.47" class="cls-2"/>
      <polygon points="6.78 166.46 19.37 158.79 19.37 167.78 6.78 175.46 6.78 166.46" class="cls-3"/>
      <polygon points="6.78 175.46 19.37 167.78 19.37 176.78 6.78 184.45 6.78 175.46" class="cls-2"/>
      <polygon points="19.37 176.78 19.37 185.77 6.78 193.44 6.78 184.45 19.37 176.78" class="cls-3"/>
      <polygon points="31.96 157.47 19.37 149.79 19.37 158.79 31.96 166.46 31.96 157.47" class="cls-3"/>
      <polygon points="31.96 130.48 19.37 122.81 19.37 131.8 31.96 139.47 31.96 130.48" class="cls-2"/>
      <polygon points="31.96 121.44 19.37 113.77 19.37 122.77 31.96 130.44 31.96 121.44" class="cls-3"/>
      <polygon points="31.96 148.47 19.37 140.8 19.37 149.79 31.96 157.47 31.96 148.47" class="cls-2"/>
      <polygon points="31.96 139.47 19.37 131.8 19.37 140.8 31.96 148.47 31.96 139.47" class="cls-3"/>
      <polygon points="31.96 166.46 19.37 158.79 19.37 167.78 31.96 175.46 31.96 166.46" class="cls-2"/>
      <polygon points="31.96 175.46 19.37 167.78 19.37 176.78 31.96 184.45 31.96 175.46" class="cls-3"/>
      <polygon points="19.37 176.78 19.37 185.77 31.96 193.44 31.96 184.45 19.37 176.78" class="cls-2"/>
      <polygon points="31.96 157.47 44.56 149.79 44.56 158.79 31.96 166.46 31.96 157.47" class="cls-2"/>
      <polygon points="31.96 130.48 44.56 122.81 44.56 131.8 31.96 139.47 31.96 130.48" class="cls-3"/>
      <polygon points="31.96 121.44 44.56 113.77 44.56 122.77 31.96 130.44 31.96 121.44" class="cls-2"/>
      <polygon points="31.96 148.47 44.56 140.8 44.56 149.79 31.96 157.47 31.96 148.47" class="cls-3"/>
      <polygon points="31.96 139.47 44.56 131.8 44.56 140.8 31.96 148.47 31.96 139.47" class="cls-2"/>
      <polygon points="31.96 166.46 44.56 158.79 44.56 167.78 31.96 175.46 31.96 166.46" class="cls-3"/>
      <polygon points="31.96 175.46 44.56 167.78 44.56 176.78 31.96 184.45 31.96 175.46" class="cls-2"/>
      <polygon points="44.56 176.78 44.56 185.77 31.96 193.44 31.96 184.45 44.56 176.78" class="cls-3"/>
      <polygon points="57.15 157.47 44.56 149.79 44.56 158.79 57.15 166.46 57.15 157.47" class="cls-3"/>
      <polygon points="57.15 130.48 44.56 122.81 44.56 131.8 57.15 139.47 57.15 130.48" class="cls-2"/>
      <polygon points="57.15 121.44 44.56 113.77 44.56 122.77 57.15 130.44 57.15 121.44" class="cls-3"/>
      <polygon points="57.15 148.47 44.56 140.8 44.56 149.79 57.15 157.47 57.15 148.47" class="cls-2"/>
      <polygon points="57.15 139.47 44.56 131.8 44.56 140.8 57.15 148.47 57.15 139.47" class="cls-3"/>
      <polygon points="57.15 166.46 44.56 158.79 44.56 167.78 57.15 175.46 57.15 166.46" class="cls-2"/>
      <polygon points="57.15 175.46 44.56 167.78 44.56 176.78 57.15 184.45 57.15 175.46" class="cls-3"/>
      <polygon points="44.56 176.78 44.56 185.77 57.15 193.44 57.15 184.45 44.56 176.78" class="cls-2"/>
      <polygon points="57.15 157.47 69.74 149.79 69.74 158.79 57.15 166.46 57.15 157.47" class="cls-2"/>
      <polygon points="57.15 130.48 69.74 122.81 69.74 131.8 57.15 139.47 57.15 130.48" class="cls-3"/>
      <polygon points="57.15 121.44 69.74 113.77 69.74 122.77 57.15 130.44 57.15 121.44" class="cls-2"/>
      <polygon points="57.15 148.47 69.74 140.8 69.74 149.79 57.15 157.47 57.15 148.47" class="cls-3"/>
      <polygon points="57.15 139.47 69.74 131.8 69.74 140.8 57.15 148.47 57.15 139.47" class="cls-2"/>
      <polygon points="57.15 166.46 69.74 158.79 69.74 167.78 57.15 175.46 57.15 166.46" class="cls-3"/>
      <polygon points="57.15 175.46 69.74 167.78 69.74 176.78 57.15 184.45 57.15 175.46" class="cls-2"/>
      <polygon points="69.74 176.78 69.74 185.77 57.15 193.44 57.15 184.45 69.74 176.78" class="cls-3"/>
    </g>
    <rect width="62" height="62" x="185.98" y="124" class="cls-2"/>
    <path d="M216.57 142.72s.1-2.7-1.16-3.25-1.68.31-2.58 0c-2-.62-2-2.6-.62-3.14.92-.38 1.24.23 1.44-.13s-1.93-1.81-.87-3.12 2.27.18 2.68-.24.15-2.27 1.42-2.29c1.66 0 1 1.88 1.42 2.29s1.63-1.07 2.68.24-1.12 2.7-.88 3.12.52-.25 1.44.13c1.34.54 1.37 2.52-.62 3.14-.9.28-1.31-.57-2.57 0s-1.16 3.25-1.16 3.25zm-11.86 12.07s-2.71.11-3.25-1.16.31-1.67 0-2.58c-.62-2-2.6-2-3.15-.61-.37.92.24 1.23-.13 1.44s-1.8-1.93-3.11-.88.18 2.27-.24 2.68-2.31-.24-2.29 1.42c0 1.27 1.88 1 2.29 1.42s-1.07 1.63.24 2.68 2.7-1.11 3.11-.88-.24.53.13 1.45c.55 1.34 2.53 1.36 3.15-.62.28-.9-.57-1.32 0-2.58s3.25-1.16 3.25-1.16zm12.07 12.48s.1 2.7-1.16 3.25-1.67-.31-2.58 0c-2 .62-2 2.6-.62 3.14.92.38 1.24-.23 1.45.13s-1.94 1.81-.88 3.12 2.27-.18 2.68.24-.24 2.31 1.42 2.29c1.27 0 1-1.88 1.42-2.29s1.63 1.07 2.68-.24-1.11-2.7-.88-3.12.53.25 1.45-.13c1.34-.54 1.36-2.52-.62-3.14-.9-.28-1.32.57-2.58 0s-1.16-3.25-1.16-3.25zm12.48-12.07s2.7-.11 3.24 1.16-.3 1.67 0 2.58c.62 2 2.6 2 3.14.62.37-.93-.23-1.24.13-1.45s1.81 1.93 3.12.88-.18-2.27.23-2.68 2.32.24 2.3-1.42c0-1.27-1.88-1-2.3-1.42s1.07-1.63-.23-2.68-2.7 1.11-3.12.88.24-.53-.13-1.45c-.54-1.34-2.52-1.36-3.14.62-.28.9.57 1.32 0 2.58s-3.24 1.16-3.24 1.16z" class="cls-6"/>
    <path d="M231.39 138.73c1.72-3.51.66-7.27 3.42-10.8a6 6 0 015-2 13.07 13.07 0 004.47-.12s.61-.09.44.36a1.65 1.65 0 01-.6.72s.64.52-.17.85-3.57-.83-3.57-.83 2.34 1.64 1.64 2.36-2.9-.61-2.9-.61 2.25 2.7.36 3.48c-1.6.65-.87-2.2-1.82-2.18s-1.74.87-2 2.9a17 17 0 01-2.25 5.93 17.87 17.87 0 016.1-1.79c1.07-.08 2.94-1.3 2.87-2.25s-2.62.24-2-1.52 3-.18 3-.18-1.16-2.22-.51-3 2.18 1.09 2.18 1.09a12.33 12.33 0 01.07-3c.26-.84.84-.26.84-.26a1.59 1.59 0 01.65-.65c.44-.22.4.4.4.4a7.76 7.76 0 00-.62 4c.21 2.19.09 4.4-1.12 5.43-4 3.43-7.59 1.67-11.12 3.36-1.88.9-5.27 2.18-5.27 2.18s.8-.35 2.51-3.87zm-26.32 3.88s-3.38-1.28-5.26-2.18c-3.53-1.69-7.09.07-11.12-3.36-1.21-1-1.33-3.24-1.13-5.43a7.82 7.82 0 00-.61-4s0-.62.4-.4a1.67 1.67 0 01.65.65s.58-.58.84.26a12.33 12.33 0 01.07 3s1.52-1.86 2.18-1.09-.51 3-.51 3 2.51-1.46 3 .18-2 .58-2 1.52 1.8 2.17 2.87 2.25a17.77 17.77 0 016.09 1.79 16.89 16.89 0 01-2.24-5.93c-.29-2-1.09-2.89-2-2.9s-.21 2.83-1.81 2.18c-1.9-.78.36-3.48.36-3.48s-2.21 1.33-2.91.61 1.65-2.36 1.65-2.36-2.76 1.16-3.57.83-.18-.85-.18-.85a1.66 1.66 0 01-.59-.72c-.17-.45.44-.36.44-.36a13.07 13.07 0 004.47.12 6 6 0 015 2c2.76 3.53 1.71 7.29 3.43 10.8s2.48 3.87 2.48 3.87zm23.82 24.77s3.39 1.28 5.27 2.18c3.53 1.69 7.08-.07 11.12 3.36 1.21 1 1.33 3.24 1.12 5.43a7.76 7.76 0 00.62 4s0 .62-.4.4a1.59 1.59 0 01-.65-.65s-.58.58-.84-.26a12.33 12.33 0 01-.07-3s-1.53 1.86-2.18 1.09.51-3 .51-3-2.51 1.45-3-.19 2-.58 2-1.52-1.8-2.17-2.87-2.25a17.87 17.87 0 01-6.1-1.79 17 17 0 012.25 5.93c.29 2 1.09 2.89 2 2.9s.22-2.83 1.82-2.18c1.89.78-.36 3.48-.36 3.48s2.2-1.33 2.9-.61-1.64 2.37-1.64 2.37 2.76-1.17 3.57-.84.17.85.17.85a1.65 1.65 0 01.6.72c.17.45-.44.36-.44.36a13 13 0 00-4.47-.11 6 6 0 01-5-2c-2.76-3.53-1.7-7.29-3.42-10.8s-2.51-3.87-2.51-3.87zm-26.31 3.88c-1.72 3.51-.67 7.27-3.43 10.8a6 6 0 01-5 2 13 13 0 00-4.47.11s-.61.09-.44-.36a1.66 1.66 0 01.59-.72s-.63-.52.18-.85 3.57.84 3.57.84-2.35-1.65-1.65-2.37 2.91.61 2.91.61-2.26-2.7-.36-3.48c1.6-.65.87 2.2 1.81 2.18s1.75-.87 2-2.9a16.89 16.89 0 012.24-5.93 17.77 17.77 0 01-6.09 1.79c-1.07.08-2.95 1.3-2.87 2.25s2.62-.24 2 1.52-3 .19-3 .19 1.16 2.21.51 3-2.18-1.09-2.18-1.09a12.33 12.33 0 01-.07 3c-.26.84-.84.26-.84.26a1.67 1.67 0 01-.65.65c-.44.22-.4-.4-.4-.4a7.82 7.82 0 00.61-4c-.2-2.19-.08-4.4 1.13-5.43 4-3.43 7.59-1.67 11.12-3.36 1.88-.9 5.26-2.18 5.26-2.18s-.77.35-2.48 3.87zm23.12-23c0-4.46 4.34-8.45 10.08-7.65 9.77 1.35 11.53 12.91 10.29 13.2-2.1-.25-1.53-3-2.39-3.24-.4-.12-1.31.89-1.92.33-.79-.73-.61-2.49-1.1-2.68-.68-.25-1.54 1.16-1.85.53s.29-.59.11-1.92a2.46 2.46 0 00-1.14-1.7c-.43-.15-.68 3.73-3.24 1.88-.82-.59-1-2.31 0-2.67.75-.26 1.71.07 1.57-.64s-5.91-3.56-7.9 2c-1.87 5.19 2.15 9.24 2.15 9.24s-4 4.05-2.15 9.24c2 5.52 7.76 2.67 7.9 2s-.82-.37-1.57-.64c-1-.35-.78-2.07 0-2.66 2.56-1.85 2.81 2 3.24 1.88a2.46 2.46 0 001.14-1.71c.18-1.33-.36-1.42-.11-1.92s1.17.79 1.85.54c.49-.19.31-1.95 1.1-2.68.61-.56 1.52.44 1.92.33.86-.25.29-3 2.39-3.24 1.24.29-.52 11.85-10.29 13.2-5.78.72-10.08-3.28-10.08-7.75a10.25 10.25 0 012.42-6.64 10.27 10.27 0 01-2.42-6.64zm-2 15.46c4.46 0 8.45 4.34 7.65 10.09-1.35 9.76-12.91 11.52-13.2 10.28.25-2.1 3-1.53 3.24-2.39.12-.39-.89-1.31-.33-1.92.73-.79 2.49-.61 2.68-1.1.25-.67-1.16-1.54-.54-1.85s.59.29 1.93.11a2.46 2.46 0 001.7-1.14c.15-.43-3.73-.68-1.88-3.24.59-.82 2.31-1 2.67 0 .26.75-.07 1.71.64 1.57s3.56-5.91-2-7.9c-5.19-1.87-9.24 2.16-9.24 2.16s-4.05-4-9.24-2.16c-5.52 2-2.67 7.76-2 7.9s.38-.82.64-1.57c.36-1 2.08-.78 2.67 0 1.85 2.56-2 2.81-1.88 3.24a2.46 2.46 0 001.71 1.14c1.33.18 1.42-.36 1.92-.11s-.79 1.18-.54 1.85c.19.49 2 .31 2.68 1.1.56.61-.45 1.53-.33 1.92.25.86 3 .29 3.24 2.39-.29 1.24-11.85-.52-13.2-10.28-.8-5.75 3.19-10.09 7.65-10.09a10.23 10.23 0 016.64 2.43 10.23 10.23 0 016.75-2.44zm-15.46-2c0 4.46-4.34 8.45-10.09 7.65-9.76-1.35-11.52-12.91-10.28-13.2 2.1.25 1.53 3 2.39 3.24.39.12 1.31-.89 1.92-.32.79.72.61 2.48 1.1 2.67.67.26 1.54-1.16 1.85-.53s-.29.59-.11 1.92a2.48 2.48 0 001.14 1.71c.43.14.68-3.74 3.24-1.89.82.59 1 2.31 0 2.67-.74.26-1.7-.07-1.56.64s5.91 3.57 7.9-2c1.87-5.19-2.16-9.24-2.16-9.24s4-4 2.16-9.24c-2-5.52-7.76-2.67-7.9-2s.82.37 1.56.64c1 .35.79 2.07 0 2.66-2.56 1.85-2.81-2-3.24-1.88a2.46 2.46 0 00-1.14 1.71c-.18 1.33.36 1.42.11 1.92s-1.18-.79-1.85-.54c-.49.19-.31 2-1.1 2.68-.61.56-1.53-.44-1.92-.33-.86.25-.29 3-2.39 3.24-1.24-.28.52-11.85 10.28-13.2 5.75-.79 10.09 3.19 10.09 7.65a10.21 10.21 0 01-2.43 6.64 10.23 10.23 0 012.46 6.75zm2-15.46c-4.46 0-8.45-4.34-7.65-10.09 1.35-9.76 12.91-11.52 13.19-10.28-.24 2.1-3 1.53-3.23 2.39-.12.39.89 1.31.32 1.92-.72.79-2.48.61-2.67 1.1-.26.67 1.16 1.54.53 1.85s-.59-.29-1.92-.11a2.52 2.52 0 00-1.71 1.14c-.14.43 3.74.68 1.89 3.24-.59.82-2.31 1-2.67 0-.26-.75.07-1.71-.64-1.57s-3.57 5.91 2 7.9c5.19 1.87 9.24-2.16 9.24-2.16s4.05 4 9.24 2.16c5.52-2 2.66-7.76 1.95-7.9s-.37.82-.64 1.57c-.35 1-2.08.78-2.67 0-1.85-2.56 2-2.81 1.89-3.24a2.49 2.49 0 00-1.71-1.14c-1.33-.18-1.42.36-1.92.11s.79-1.18.54-1.85c-.19-.49-1.95-.31-2.68-1.1-.56-.61.44-1.53.33-1.92-.25-.86-3-.29-3.24-2.39.28-1.24 11.85.52 13.2 10.28.79 5.75-3.19 10.09-7.65 10.09a10.23 10.23 0 01-6.64-2.42 10.27 10.27 0 01-6.68 2.44z" class="cls-3"/>
    <path d="M207.8 164.24a6.85 6.85 0 00.47-2.5 10.23 10.23 0 00-2.43-6.64 10.21 10.21 0 002.43-6.64 7 7 0 00-.53-2.64 7.06 7.06 0 002.5.46 10.27 10.27 0 006.64-2.42 10.23 10.23 0 006.64 2.42 7 7 0 002.64-.53 7.1 7.1 0 00-.46 2.5 10.27 10.27 0 002.42 6.64 10.25 10.25 0 00-2.42 6.64 7 7 0 00.53 2.64 7.1 7.1 0 00-2.5-.46 10.23 10.23 0 00-6.64 2.43 10.21 10.21 0 00-6.64-2.43 7 7 0 00-2.65.53z" class="cls-7"/>
    <circle cx="216.88" cy="155" r="5.23" class="cls-3"/>
    <rect width="62" height="62" x="123.98" y="124" class="cls-2"/>
    <g clip-path="url(#clip-path-3)">
      <path d="M190 120l-7 7 7 7 7-7zm0 10.07a3.07 3.07 0 113.07-3.07 3.07 3.07 0 01-3.07 3.05z" class="cls-3"/>
      <path d="M190 134l-7 7 7 7 7-7zm0 10.07a3.07 3.07 0 113-3.07 3.07 3.07 0 01-3 3.08zM176 120l-7 7 7 7 7-7zm0 10.07a3.07 3.07 0 113-3.07 3.07 3.07 0 01-3 3.08z" class="cls-9"/>
      <path d="M183 113l-7 7 7 7 7-7zm0 2.45a1.69 1.69 0 011.69 1.68 1.66 1.66 0 010 .33 3 3 0 00-3.3 0 1.69 1.69 0 011.65-2zm-2.54 6.2a1.24 1.24 0 01-.33 0 1.69 1.69 0 010-3.37 1.84 1.84 0 01.33 0A3.05 3.05 0 00180 120a3 3 0 00.44 1.63zm2.54 2.91a1.69 1.69 0 01-1.65-2 3 3 0 003.3 0 1.66 1.66 0 010 .33 1.69 1.69 0 01-1.65 1.65zm0-2.1a2.46 2.46 0 112.46-2.46 2.46 2.46 0 01-2.46 2.44zm2.87-.77a1.12 1.12 0 01-.32 0A3 3 0 00186 120a3.05 3.05 0 00-.49-1.66 1.66 1.66 0 01.32 0 1.69 1.69 0 110 3.37zM183 127l-7 7 7 7 7-7zm0 10a3.07 3.07 0 113.08-3.07A3.07 3.07 0 01183 137zM169 113l-7 7 7 7 7-7zm0 10a3.07 3.07 0 113.08-3.07A3.07 3.07 0 01169 123z" class="cls-7"/>
      <path d="M190 148l-7 7 7 7 7-7zm0 10.07a3.07 3.07 0 113.07-3.07 3.07 3.07 0 01-3.07 3.05zM176 134l-7 7 7 7 7-7zm0 10.07a3.07 3.07 0 113.07-3.07 3.07 3.07 0 01-3.07 3.05zM162 120l-7 7 7 7 7-7zm0 10.07a3.07 3.07 0 113.07-3.07 3.07 3.07 0 01-3.07 3.05z" class="cls-3"/>
      <path d="M190 162l-7 7 7 7 7-7zm0 10.07a3.07 3.07 0 113-3.07 3.07 3.07 0 01-3 3.08zM176 148l-7 7 7 7 7-7zm0 10.07a3.07 3.07 0 113-3.07 3.07 3.07 0 01-3 3.08zM162 134l-7 7 7 7 7-7zm0 10.07a3.07 3.07 0 113-3.07 3.07 3.07 0 01-3 3.08zM148 120l-7 7 7 7 7-7zm0 10.07a3.07 3.07 0 113-3.07 3.07 3.07 0 01-3 3.08z" class="cls-9"/>
      <path d="M183 141l-7 7 7 7 7-7zm0 2.45a1.69 1.69 0 011.69 1.68 1.66 1.66 0 010 .33 3 3 0 00-3.3 0 1.69 1.69 0 011.65-2zm-2.54 6.2a1.24 1.24 0 01-.33 0 1.69 1.69 0 010-3.37 1.84 1.84 0 01.33 0A3.05 3.05 0 00180 148a3 3 0 00.44 1.63zm2.54 2.91a1.69 1.69 0 01-1.65-2 3 3 0 003.3 0 1.66 1.66 0 010 .33 1.69 1.69 0 01-1.65 1.65zm0-2.1a2.46 2.46 0 112.46-2.46 2.46 2.46 0 01-2.46 2.44zm2.87-.77a1.12 1.12 0 01-.32 0A3 3 0 00186 148a3.05 3.05 0 00-.49-1.66 1.66 1.66 0 01.32 0 1.69 1.69 0 110 3.37zM169 127l-7 7 7 7 7-7zm0 2.45a1.69 1.69 0 011.69 1.68 1.66 1.66 0 010 .33 3 3 0 00-3.3 0 1.69 1.69 0 011.65-2zm-2.54 6.2a1.24 1.24 0 01-.33 0 1.69 1.69 0 010-3.37 1.84 1.84 0 01.33 0A3.05 3.05 0 00166 134a3 3 0 00.44 1.63zm2.54 2.91a1.69 1.69 0 01-1.65-2 3 3 0 003.3 0 1.66 1.66 0 010 .33 1.69 1.69 0 01-1.65 1.65zm0-2.1a2.46 2.46 0 112.46-2.46 2.46 2.46 0 01-2.46 2.44zm2.87-.77a1.12 1.12 0 01-.32 0A3 3 0 00172 134a3.05 3.05 0 00-.49-1.66 1.66 1.66 0 01.32 0 1.69 1.69 0 110 3.37zM155 113l-7 7 7 7 7-7zm0 2.45a1.69 1.69 0 011.69 1.68 1.66 1.66 0 010 .33 3 3 0 00-3.3 0 1.69 1.69 0 011.65-2zm-2.54 6.2a1.24 1.24 0 01-.33 0 1.69 1.69 0 010-3.37 1.84 1.84 0 01.33 0A3.05 3.05 0 00152 120a3 3 0 00.44 1.63zm2.54 2.91a1.69 1.69 0 01-1.65-2 3 3 0 003.3 0 1.66 1.66 0 010 .33 1.69 1.69 0 01-1.65 1.65zm0-2.1a2.46 2.46 0 112.46-2.46 2.46 2.46 0 01-2.46 2.44zm2.87-.77a1.12 1.12 0 01-.32 0A3 3 0 00158 120a3.05 3.05 0 00-.49-1.66 1.66 1.66 0 01.32 0 1.69 1.69 0 110 3.37zM183 155l-7 7 7 7 7-7zm0 10a3.07 3.07 0 113.08-3.07A3.07 3.07 0 01183 165zM169 141l-7 7 7 7 7-7zm0 10a3.07 3.07 0 113.08-3.07A3.07 3.07 0 01169 151zM155 127l-7 7 7 7 7-7zm0 10a3.07 3.07 0 113.08-3.07A3.07 3.07 0 01155 137zM141 113l-7 7 7 7 7-7zm0 10a3.07 3.07 0 113.08-3.07A3.07 3.07 0 01141 123z" class="cls-7"/>
      <path d="M190 176l-7 7 7 7 7-7zm0 10.07a3.07 3.07 0 113.07-3.07 3.07 3.07 0 01-3.07 3.05zM176 162l-7 7 7 7 7-7zm0 10.07a3.07 3.07 0 113.07-3.07 3.07 3.07 0 01-3.07 3.05zM162 148l-7 7 7 7 7-7zm0 10.07a3.07 3.07 0 113.07-3.07 3.07 3.07 0 01-3.07 3.05zM148 134l-7 7 7 7 7-7zm0 10.07a3.07 3.07 0 113.07-3.07 3.07 3.07 0 01-3.07 3.05zM134 120l-7 7 7 7 7-7zm0 10.07a3.07 3.07 0 113.07-3.07 3.07 3.07 0 01-3.07 3.05z" class="cls-3"/>
      <path d="M176 176l-7 7 7 7 7-7zm0 10.07a3.07 3.07 0 113-3.07 3.07 3.07 0 01-3 3.08zM162 162l-7 7 7 7 7-7zm0 10.07a3.07 3.07 0 113-3.07 3.07 3.07 0 01-3 3.08zM148 148l-7 7 7 7 7-7zm0 10.07a3.07 3.07 0 113-3.07 3.07 3.07 0 01-3 3.08zM134 134l-7 7 7 7 7-7zm0 10.07a3.07 3.07 0 113-3.07 3.07 3.07 0 01-3 3.08zM120 120l-7 7 7 7 7-7zm0 10.07a3.07 3.07 0 113-3.07 3.07 3.07 0 01-3 3.08z" class="cls-9"/>
      <path d="M183 169l-7 7 7 7 7-7zm0 2.45a1.69 1.69 0 011.69 1.68 1.66 1.66 0 010 .33 3 3 0 00-3.3 0 1.69 1.69 0 011.65-2zm-2.54 6.2a1.24 1.24 0 01-.33 0 1.69 1.69 0 010-3.37 1.84 1.84 0 01.33 0A3.05 3.05 0 00180 176a3 3 0 00.44 1.63zm2.54 2.91a1.69 1.69 0 01-1.65-2 3 3 0 003.3 0 1.66 1.66 0 010 .33 1.69 1.69 0 01-1.65 1.65zm0-2.1a2.46 2.46 0 112.46-2.46 2.46 2.46 0 01-2.46 2.44zm2.87-.77a1.12 1.12 0 01-.32 0A3 3 0 00186 176a3.05 3.05 0 00-.49-1.66 1.66 1.66 0 01.32 0 1.69 1.69 0 110 3.37zM169 155l-7 7 7 7 7-7zm0 2.45a1.69 1.69 0 011.69 1.68 1.66 1.66 0 010 .33 3 3 0 00-3.3 0 1.69 1.69 0 011.65-2zm-2.54 6.2a1.24 1.24 0 01-.33 0 1.69 1.69 0 010-3.37 1.84 1.84 0 01.33 0A3.05 3.05 0 00166 162a3 3 0 00.44 1.63zm2.54 2.91a1.69 1.69 0 01-1.65-2 3 3 0 003.3 0 1.66 1.66 0 010 .33 1.69 1.69 0 01-1.65 1.65zm0-2.1a2.46 2.46 0 112.46-2.46 2.46 2.46 0 01-2.46 2.44zm2.87-.77a1.12 1.12 0 01-.32 0A3 3 0 00172 162a3.05 3.05 0 00-.49-1.66 1.66 1.66 0 01.32 0 1.69 1.69 0 110 3.37zM155 141l-7 7 7 7 7-7zm0 2.45a1.69 1.69 0 011.69 1.68 1.66 1.66 0 010 .33 3 3 0 00-3.3 0 1.69 1.69 0 011.65-2zm-2.54 6.2a1.24 1.24 0 01-.33 0 1.69 1.69 0 010-3.37 1.84 1.84 0 01.33 0A3.05 3.05 0 00152 148a3 3 0 00.44 1.63zm2.54 2.91a1.69 1.69 0 01-1.65-2 3 3 0 003.3 0 1.66 1.66 0 010 .33 1.69 1.69 0 01-1.65 1.65zm0-2.1a2.46 2.46 0 112.46-2.46 2.46 2.46 0 01-2.46 2.44zm2.87-.77a1.12 1.12 0 01-.32 0A3 3 0 00158 148a3.05 3.05 0 00-.49-1.66 1.66 1.66 0 01.32 0 1.69 1.69 0 110 3.37zM141 127l-7 7 7 7 7-7zm0 2.45a1.69 1.69 0 011.69 1.68 1.66 1.66 0 010 .33 3 3 0 00-3.3 0 1.69 1.69 0 011.65-2zm-2.54 6.2a1.24 1.24 0 01-.33 0 1.69 1.69 0 010-3.37 1.84 1.84 0 01.33 0A3.05 3.05 0 00138 134a3 3 0 00.44 1.63zm2.54 2.91a1.69 1.69 0 01-1.65-2 3 3 0 003.3 0 1.66 1.66 0 010 .33 1.69 1.69 0 01-1.65 1.65zm0-2.1a2.46 2.46 0 112.46-2.46 2.46 2.46 0 01-2.46 2.44zm2.87-.77a1.12 1.12 0 01-.32 0A3 3 0 00144 134a3.05 3.05 0 00-.49-1.66 1.66 1.66 0 01.32 0 1.69 1.69 0 110 3.37zM127 113l-7 7 7 7 7-7zm0 2.45a1.69 1.69 0 011.69 1.68 1.66 1.66 0 010 .33 3 3 0 00-3.3 0 1.69 1.69 0 011.65-2zm-2.54 6.2a1.24 1.24 0 01-.33 0 1.69 1.69 0 010-3.37 1.84 1.84 0 01.33 0A3.05 3.05 0 00124 120a3 3 0 00.44 1.63zm2.54 2.91a1.69 1.69 0 01-1.65-2 3 3 0 003.3 0 1.66 1.66 0 010 .33 1.69 1.69 0 01-1.65 1.65zm0-2.1a2.46 2.46 0 112.46-2.46 2.46 2.46 0 01-2.46 2.44zm2.87-.77a1.12 1.12 0 01-.32 0A3 3 0 00130 120a3.05 3.05 0 00-.49-1.66 1.66 1.66 0 01.32 0 1.69 1.69 0 110 3.37zM183 183l-7 7 7 7 7-7zm0 10a3.07 3.07 0 113.08-3.07A3.07 3.07 0 01183 193zM169 169l-7 7 7 7 7-7zm0 10a3.07 3.07 0 113.08-3.07A3.07 3.07 0 01169 179zM155 155l-7 7 7 7 7-7zm0 10a3.07 3.07 0 113.08-3.07A3.07 3.07 0 01155 165zM141 141l-7 7 7 7 7-7zm0 10a3.07 3.07 0 113.08-3.07A3.07 3.07 0 01141 151zM127 127l-7 7 7 7 7-7zm0 10a3.07 3.07 0 113.08-3.07A3.07 3.07 0 01127 137z" class="cls-7"/>
      <path d="M162 176l-7 7 7 7 7-7zm0 10.07a3.07 3.07 0 113.07-3.07 3.07 3.07 0 01-3.07 3.05zM148 162l-7 7 7 7 7-7zm0 10.07a3.07 3.07 0 113.07-3.07 3.07 3.07 0 01-3.07 3.05zM134 148l-7 7 7 7 7-7zm0 10.07a3.07 3.07 0 113.07-3.07 3.07 3.07 0 01-3.07 3.05zM120 134l-7 7 7 7 7-7zm0 10.07a3.07 3.07 0 113.07-3.07 3.07 3.07 0 01-3.07 3.05z" class="cls-3"/>
      <path d="M148 176l-7 7 7 7 7-7zm0 10.07a3.07 3.07 0 113-3.07 3.07 3.07 0 01-3 3.08zM134 162l-7 7 7 7 7-7zm0 10.07a3.07 3.07 0 113-3.07 3.07 3.07 0 01-3 3.08zM120 148l-7 7 7 7 7-7zm0 10.07a3.07 3.07 0 113-3.07 3.07 3.07 0 01-3 3.08z" class="cls-9"/>
      <path d="M169 183l-7 7 7 7 7-7zm0 2.45a1.69 1.69 0 011.69 1.68 1.66 1.66 0 010 .33 3 3 0 00-3.3 0 1.69 1.69 0 011.65-2zm-2.54 6.2a1.24 1.24 0 01-.33 0 1.69 1.69 0 010-3.37 1.84 1.84 0 01.33 0A3.05 3.05 0 00166 190a3 3 0 00.44 1.63zm2.54 2.91a1.69 1.69 0 01-1.65-2 3 3 0 003.3 0 1.66 1.66 0 010 .33 1.69 1.69 0 01-1.65 1.65zm0-2.1a2.46 2.46 0 112.46-2.46 2.46 2.46 0 01-2.46 2.44zm2.87-.77a1.12 1.12 0 01-.32 0A3 3 0 00172 190a3.05 3.05 0 00-.49-1.66 1.66 1.66 0 01.32 0 1.69 1.69 0 110 3.37zM155 169l-7 7 7 7 7-7zm0 2.45a1.69 1.69 0 011.69 1.68 1.66 1.66 0 010 .33 3 3 0 00-3.3 0 1.69 1.69 0 011.65-2zm-2.54 6.2a1.24 1.24 0 01-.33 0 1.69 1.69 0 010-3.37 1.84 1.84 0 01.33 0A3.05 3.05 0 00152 176a3 3 0 00.44 1.63zm2.54 2.91a1.69 1.69 0 01-1.65-2 3 3 0 003.3 0 1.66 1.66 0 010 .33 1.69 1.69 0 01-1.65 1.65zm0-2.1a2.46 2.46 0 112.46-2.46 2.46 2.46 0 01-2.46 2.44zm2.87-.77a1.12 1.12 0 01-.32 0A3 3 0 00158 176a3.05 3.05 0 00-.49-1.66 1.66 1.66 0 01.32 0 1.69 1.69 0 110 3.37zM141 155l-7 7 7 7 7-7zm0 2.45a1.69 1.69 0 011.69 1.68 1.66 1.66 0 010 .33 3 3 0 00-3.3 0 1.69 1.69 0 011.65-2zm-2.54 6.2a1.24 1.24 0 01-.33 0 1.69 1.69 0 010-3.37 1.84 1.84 0 01.33 0A3.05 3.05 0 00138 162a3 3 0 00.44 1.63zm2.54 2.91a1.69 1.69 0 01-1.65-2 3 3 0 003.3 0 1.66 1.66 0 010 .33 1.69 1.69 0 01-1.65 1.65zm0-2.1a2.46 2.46 0 112.46-2.46 2.46 2.46 0 01-2.46 2.44zm2.87-.77a1.12 1.12 0 01-.32 0A3 3 0 00144 162a3.05 3.05 0 00-.49-1.66 1.66 1.66 0 01.32 0 1.69 1.69 0 110 3.37zM127 141l-7 7 7 7 7-7zm0 2.45a1.69 1.69 0 011.69 1.68 1.66 1.66 0 010 .33 3 3 0 00-3.3 0 1.69 1.69 0 011.65-2zm-2.54 6.2a1.24 1.24 0 01-.33 0 1.69 1.69 0 010-3.37 1.84 1.84 0 01.33 0A3.05 3.05 0 00124 148a3 3 0 00.44 1.63zm2.54 2.91a1.69 1.69 0 01-1.65-2 3 3 0 003.3 0 1.66 1.66 0 010 .33 1.69 1.69 0 01-1.65 1.65zm0-2.1a2.46 2.46 0 112.46-2.46 2.46 2.46 0 01-2.46 2.44zm2.87-.77a1.12 1.12 0 01-.32 0A3 3 0 00130 148a3.05 3.05 0 00-.49-1.66 1.66 1.66 0 01.32 0 1.69 1.69 0 110 3.37zM155 183l-7 7 7 7 7-7zm0 10a3.07 3.07 0 113.08-3.07A3.07 3.07 0 01155 193zM141 169l-7 7 7 7 7-7zm0 10a3.07 3.07 0 113.08-3.07A3.07 3.07 0 01141 179zM127 155l-7 7 7 7 7-7zm0 10a3.07 3.07 0 113.08-3.07A3.07 3.07 0 01127 165z" class="cls-7"/>
      <path d="M134 176l-7 7 7 7 7-7zm0 10.07a3.07 3.07 0 113.07-3.07 3.07 3.07 0 01-3.07 3.05zM120 162l-7 7 7 7 7-7zm0 10.07a3.07 3.07 0 113.07-3.07 3.07 3.07 0 01-3.07 3.05z" class="cls-3"/>
      <path d="M120 176l-7 7 7 7 7-7zm0 10.07a3.07 3.07 0 113-3.07 3.07 3.07 0 01-3 3.08z" class="cls-9"/>
      <path d="M141 183l-7 7 7 7 7-7zm0 2.45a1.69 1.69 0 011.69 1.68 1.66 1.66 0 010 .33 3 3 0 00-3.3 0 1.69 1.69 0 011.65-2zm-2.54 6.2a1.24 1.24 0 01-.33 0 1.69 1.69 0 010-3.37 1.84 1.84 0 01.33 0A3.05 3.05 0 00138 190a3 3 0 00.44 1.63zm2.54 2.91a1.69 1.69 0 01-1.65-2 3 3 0 003.3 0 1.66 1.66 0 010 .33 1.69 1.69 0 01-1.65 1.65zm0-2.1a2.46 2.46 0 112.46-2.46 2.46 2.46 0 01-2.46 2.44zm2.87-.77a1.12 1.12 0 01-.32 0A3 3 0 00144 190a3.05 3.05 0 00-.49-1.66 1.66 1.66 0 01.32 0 1.69 1.69 0 110 3.37zM127 169l-7 7 7 7 7-7zm0 2.45a1.69 1.69 0 011.69 1.68 1.66 1.66 0 010 .33 3 3 0 00-3.3 0 1.69 1.69 0 011.65-2zm-2.54 6.2a1.24 1.24 0 01-.33 0 1.69 1.69 0 010-3.37 1.84 1.84 0 01.33 0A3.05 3.05 0 00124 176a3 3 0 00.44 1.63zm2.54 2.91a1.69 1.69 0 01-1.65-2 3 3 0 003.3 0 1.66 1.66 0 010 .33 1.69 1.69 0 01-1.65 1.65zm0-2.1a2.46 2.46 0 112.46-2.46 2.46 2.46 0 01-2.46 2.44zm2.87-.77a1.12 1.12 0 01-.32 0A3 3 0 00130 176a3.05 3.05 0 00-.49-1.66 1.66 1.66 0 01.32 0 1.69 1.69 0 110 3.37zM127 183l-7 7 7 7 7-7zm0 10a3.07 3.07 0 113.08-3.07A3.07 3.07 0 01127 193z" class="cls-7"/>
    </g>
    <rect width="62" height="62" x="61.98" y="124" class="cls-3"/>
    <g clip-path="url(#clip-path-4)">
      <path d="M121.39 183.4h-21.16a11.34 11.34 0 01-14.45 0h-21.2v-21.16a11.34 11.34 0 010-14.45v-21.2h21.16a11.37 11.37 0 0114.45 0h21.2v21.16a11.37 11.37 0 010 14.45z" class="cls-9"/>
      <path d="M118.81 161.9v18.92H99.93a9.26 9.26 0 01-13.85 0H67.16v-18.88a9.26 9.26 0 010-13.85v-18.92H86a9.26 9.26 0 0113.85 0h18.92v18.88a9.26 9.26 0 010 13.85z" class="cls-2"/>
      <path d="M115.71 160.79v16.93H98.82a6.58 6.58 0 01-11.63 0H70.26v-16.89a6.58 6.58 0 010-11.63v-16.93h16.89a6.58 6.58 0 0111.63 0h16.93v16.89a6.58 6.58 0 010 11.63z" class="cls-3"/>
      <path d="M112.61 158.86v15.76H96.89a3.89 3.89 0 01-7.77 0H73.36V158.9a3.89 3.89 0 010-7.77v-15.76h15.72a3.89 3.89 0 017.77 0h15.76v15.72a3.89 3.89 0 010 7.77z" class="cls-7"/>
      <ellipse cx="92.98" cy="155" class="cls-3" rx="16.4" ry="16.46"/>
      <path d="M87.19 153.51A14.71 14.71 0 0174.91 139a13.84 13.84 0 01.14-1.94 15.54 15.54 0 011.94-.14 14.72 14.72 0 0114.5 12.27 6 6 0 00-4.3 4.32zm11.58 3a6 6 0 01-4.3 4.32A14.72 14.72 0 00109 173.07a13.84 13.84 0 001.94-.14 15.54 15.54 0 00.14-1.94 14.72 14.72 0 00-12.31-14.51zm0-3A14.72 14.72 0 00111.06 139a15.54 15.54 0 00-.14-1.94 15.54 15.54 0 00-1.94-.14 14.72 14.72 0 00-14.51 12.27 6 6 0 014.3 4.32zm-11.58 3A14.71 14.71 0 0074.91 171a13.84 13.84 0 00.14 1.94 13.84 13.84 0 001.94.14 14.72 14.72 0 0014.5-12.27 6 6 0 01-4.3-4.33z" class="cls-9"/>
      <path d="M98 158.51h-.22a6 6 0 001-2 5.36 5.36 0 000-3 6 6 0 00-1-2H98a10.79 10.79 0 0010.78-10.79 11.17 11.17 0 00-.1-1.42 11.17 11.17 0 00-1.42-.1A10.79 10.79 0 0096.5 150v.22a5.76 5.76 0 00-2-1A6.09 6.09 0 0093 149a6.16 6.16 0 00-1.49.21 5.8 5.8 0 00-2 1v-.22a10.79 10.79 0 00-10.79-10.78 11.17 11.17 0 00-1.42.1 11.17 11.17 0 00-.1 1.42 10.78 10.78 0 0010.78 10.79h.22a6.19 6.19 0 00-1 2 5.61 5.61 0 000 3 6.19 6.19 0 001 2h-.22a10.78 10.78 0 00-10.82 10.78 11.17 11.17 0 00.1 1.42 11.17 11.17 0 001.42.1A10.79 10.79 0 0089.47 160v-.22a5.8 5.8 0 002 1A6.16 6.16 0 0093 161a6.09 6.09 0 001.49-.21 5.76 5.76 0 002-1v.22a10.79 10.79 0 0010.79 10.78 11.17 11.17 0 001.42-.1 11.17 11.17 0 00.1-1.42A10.79 10.79 0 0098 158.51zM95.9 156a3.14 3.14 0 01-2.9 2.1 3 3 0 01-1-.18 3.09 3.09 0 01-1.94-1.92 3 3 0 010-2 3.09 3.09 0 011.94-1.93 3 3 0 011-.18 3.06 3.06 0 012.9 4.11z" class="cls-2"/>
    </g>
    <rect width="62" height="62" x="-.02" y="62" class="cls-2"/>
    <g clip-path="url(#clip-path-5)">
      <path d="M31.16 64.72a13 13 0 11-13 13 13.07 13.07 0 0113.05-13m0-2.18a15.23 15.23 0 1015.18 15.23 15.23 15.23 0 00-15.23-15.23zm0 32.69a13 13 0 11-13 13 13.07 13.07 0 0113.05-13m0-2.18a15.23 15.23 0 1015.23 15.23 15.23 15.23 0 00-15.33-15.23zM15.87 80a13 13 0 11-13 13 13.07 13.07 0 0113-13m0-2.18A15.23 15.23 0 1031.1 93.05a15.23 15.23 0 00-15.23-15.23zM46.39 80a13 13 0 11-13 13 13.07 13.07 0 0113-13m0-2.18a15.23 15.23 0 1015.23 15.23 15.23 15.23 0 00-15.23-15.23zM9.05 54.29A16.38 16.38 0 11-7.33 70.67 16.4 16.4 0 019.05 54.29m0-2.18a18.56 18.56 0 1018.56 18.56A18.56 18.56 0 009.05 52.11zm43.87 2.18a16.38 16.38 0 11-16.38 16.38 16.4 16.4 0 0116.38-16.38m0-2.18a18.56 18.56 0 1018.56 18.56 18.56 18.56 0 00-18.56-18.56zM9.05 98.94a16.38 16.38 0 11-16.38 16.38A16.4 16.4 0 019.05 98.94m0-2.18a18.56 18.56 0 1018.56 18.56A18.56 18.56 0 009.05 96.76zm43.87 2.18a16.38 16.38 0 11-16.38 16.38 16.4 16.4 0 0116.38-16.38m0-2.18a18.56 18.56 0 1018.56 18.56 18.56 18.56 0 00-18.56-18.56z" class="cls-3"/>
      <path d="M31 76.18a35.58 35.58 0 01-17 17 35.56 35.56 0 0117 17 35.58 35.58 0 0117-17 35.6 35.6 0 01-17-17z" class="cls-3"/>
      <path d="M31 105.38a25.5 25.5 0 00-12.21-12.19A25.42 25.42 0 0031 81a25.5 25.5 0 0012.17 12.19A25.59 25.59 0 0031 105.38z" class="cls-7"/>
      <g id="petalos">
        <path d="M1.59 107.73c0 1.51 1.56 3.33 1.75 6.49s-.77 6-2.26 7.16-9 5.17-9 5.17V130s11.42-8.19 14.52-8.52 5.22-.45 10.26 2.65a2.29 2.29 0 00-2.2-3.55c.78-1.29 1.1-2.58-.19-2.71s-6.07 2.64-6.71 1.81 5.94-2.59 5.29-4.07c-.26-1.1-1.35.26-1.68-.26s3.42-2.51 2.39-3.68-2.9 1.1-3.55 1.1.2-1.55-.71-1.48c-3.42 1.42-3 6.29-3.87 5.74-1.23-.77.77-1.48 1-5.1.11-2 .51-2.77-.65-2.64a1.86 1.86 0 00-1.48.71s-2.86-4.84-2.91-2.27zM1.59 78.66c0-1.51 1.56-3.33 1.75-6.5s-.77-6-2.26-7.16-9-5.16-9-5.16v-3.48s11.39 8.19 14.49 8.51 5.22.45 10.26-2.64a2.29 2.29 0 01-2.2 3.55c.78 1.29 1.1 2.58-.19 2.71s-6.07-2.65-6.71-1.81 5.94 2.58 5.29 4.06c-.26 1.1-1.35-.25-1.68.26s3.42 2.52 2.39 3.68-2.9-1.1-3.55-1.1.2 1.55-.71 1.49c-3.42-1.42-3-6.3-3.87-5.74-1.23.77.77 1.48 1 5.09.11 2 .51 2.78-.65 2.65a1.86 1.86 0 01-1.48-.71s-2.83 4.87-2.88 2.3zM60.77 107.73c0 1.51-1.56 3.33-1.76 6.49s.78 6 2.26 7.16 9 5.17 9 5.17V130s-11.43-8.19-14.52-8.52-5.23-.45-10.26 2.65a2.28 2.28 0 012.19-3.55c-.77-1.29-1.1-2.58.19-2.71s6.07 2.64 6.72 1.81-5.94-2.59-5.3-4.07c.26-1.1 1.36.26 1.68-.26s-3.42-2.51-2.39-3.68 2.91 1.1 3.55 1.1-.19-1.55.71-1.48c3.42 1.42 3 6.29 3.87 5.74 1.23-.77-.77-1.48-1-5.1-.11-2-.52-2.77.64-2.64a1.9 1.9 0 011.49.71s2.88-4.84 2.93-2.27zM60.77 78.66c0-1.51-1.56-3.33-1.76-6.5s.78-6 2.26-7.16 9-5.16 9-5.16v-3.48s-11.43 8.19-14.52 8.51-5.23.45-10.26-2.64a2.29 2.29 0 002.19 3.55c-.77 1.29-1.1 2.58.19 2.71s6.07-2.65 6.72-1.81-5.94 2.58-5.3 4.06c.26 1.1 1.36-.25 1.68.26s-3.42 2.52-2.39 3.68 2.91-1.1 3.55-1.1-.19 1.55.71 1.49c3.42-1.42 3-6.3 3.87-5.74 1.23.77-.77 1.48-1 5.09-.11 2-.52 2.78.64 2.65a1.9 1.9 0 001.49-.71s2.88 4.87 2.93 2.3z" class="cls-9"/>
      </g>
    </g>
    <rect width="62" height="62" x="61.98" y="62" class="cls-2"/>
    <path d="M83 73.88c1.33 3.25 1 9 1 9s-1.77-1.33-5.3-6.27-.08-12.75-.08-12.75c-.7 2.43 3.06 6.78 4.38 10.02zm-8.62 8.65c3.19 1.3 8.85 1 8.85 1s-1.31-1.74-6.16-5.21-12.54-.08-12.54-.08c2.39-.71 6.67 2.99 9.85 4.29zM103 74.94c-1.33 3.24-1 9-1 9s1.77-1.32 5.31-6.26.07-12.75.07-12.75c.74 2.42-3.02 6.77-4.38 10.01zm18.47 4.37s-7.68-3.41-12.54.07-6.16 5.22-6.16 5.22 5.65.29 8.84-1 7.51-5.01 9.9-4.29zM83.21 112.1c1.33-3.24 1-9 1-9s-1.77 1.33-5.31 6.27-.08 12.75-.08 12.75c-.69-2.42 3.07-6.77 4.39-10.02zm-18.47-4.37s7.68 3.41 12.54-.07 6.16-5.22 6.16-5.22-5.66-.29-8.84 1-7.47 5.02-9.86 4.29zm42.64 14.19s3.47-7.82-.07-12.76-5.31-6.26-5.31-6.26-.29 5.75 1 9 5.12 7.58 4.38 10.02zm4.27-18.67c-3.19-1.31-8.84-1-8.84-1s1.31 1.74 6.16 5.22 12.54.07 12.54.07c-2.39.71-6.67-2.99-9.86-4.29z" class="cls-9"/>
    <path d="M86.48 80.1A2.17 2.17 0 1189 82.89a7.24 7.24 0 004.11 1.25 7.45 7.45 0 004.14-1.25 2.17 2.17 0 112.52-2.79c1 3.16-2.69 5.48-6.65 5.48-4.28 0-7.59-2.32-6.64-5.48zm-1.19 13.32c0-4-2.32-7.6-5.48-6.65a2.17 2.17 0 102.79 2.52 7.53 7.53 0 011.25 4.14 7.31 7.31 0 01-1.25 4.11 2.17 2.17 0 10-2.79 2.52c3.19.94 5.48-2.36 5.48-6.64zm21.15 6.64a2.17 2.17 0 10-2.79-2.52 7.24 7.24 0 01-1.25-4.11 7.45 7.45 0 011.25-4.14 2.17 2.17 0 102.79-2.52c-3.16-1-5.48 2.69-5.48 6.65.04 4.28 2.32 7.58 5.48 6.64zm-20 6.67a2.17 2.17 0 102.56-2.79 7.31 7.31 0 014.11-1.25 7.53 7.53 0 014.14 1.25 2.17 2.17 0 102.52 2.79c1-3.16-2.69-5.48-6.65-5.48-4.28 0-7.59 2.32-6.64 5.48z" class="cls-3"/>
    <path d="M116.12 94.28c-1.89-.23-3.74.42-3.93 1.89a2.77 2.77 0 002.16 3.09c0 1.31-2.83 2.59-6.31 2.38-7-.44-7.81-3.76-8.13-5.3a16.4 16.4 0 010-5.85c.35-1.53.55-4.75 8.13-5.3 3.48-.25 6.42 1.36 6.31 2.38a2.78 2.78 0 00-2.16 3.09c.19 1.47 2 2.12 3.93 1.9 1.27-.15 3.09-1.36 3.09-4.44s-5.11-5-10.56-4.28a27.26 27.26 0 00-4.77 1l-2.2-1.94a27.58 27.58 0 001-5c.67-5.44-1.2-10.56-4.28-10.56s-4.27 1.81-4.4 3.08c-.22 1.89.43 3.74 1.9 3.93a2.77 2.77 0 003.1-2.16c1-.11 2.63 2.83 2.38 6.31-.55 7.58-3.77 7.78-5.3 8.13a16.4 16.4 0 01-5.85 0c-1.54-.32-4.86-1.17-5.3-8.13-.24-3.5 1.07-6.31 2.35-6.31a2.77 2.77 0 003.09 2.16c1.47-.19 2.12-2 1.89-3.93-.15-1.27-1.35-3.09-4.43-3.09s-4.94 5.11-4.28 10.56a32.47 32.47 0 00.72 4L81 84.43a31.6 31.6 0 00-3.41-.59C72.15 83.17 67 85 67 88.12s1.83 4.29 3.1 4.44c1.89.22 3.74-.43 3.93-1.9a2.78 2.78 0 00-2.17-3.09c-.1-1 2.84-2.63 6.32-2.38 7.58.55 7.78 3.77 8.13 5.3a16.4 16.4 0 010 5.85 5.44 5.44 0 01-2.44 3.74l-.19.12a11.93 11.93 0 01-5.5 1.44c-3.48.21-6.32-1.07-6.32-2.38a2.77 2.77 0 002.17-3.09c-.19-1.47-2-2.12-3.93-1.89-1.27.15-3.09 1.35-3.1 4.43s5.12 4.94 10.57 4.28a31.12 31.12 0 004.07-.73l2.6 2.66a32.1 32.1 0 00-.72 4c-.66 5.45 1.19 10.57 4.28 10.57s4.28-1.83 4.43-3.1c.23-1.89-.42-3.74-1.89-3.93a2.77 2.77 0 00-3.09 2.17c-1.31 0-2.59-2.84-2.38-6.32.44-7 3.76-7.81 5.3-8.13a16.4 16.4 0 015.85 0c1.53.35 4.75.55 5.3 8.13.25 3.48-1.36 6.42-2.38 6.32a2.77 2.77 0 00-3.09-2.17c-1.47.19-2.12 2-1.9 3.93.15 1.27 1.36 3.1 4.44 3.1s5-5.12 4.28-10.57a28.69 28.69 0 00-.84-4.38l2.58-2.33a32.27 32.27 0 004.21.76c5.45.66 10.56-1.19 10.56-4.28s-1.79-4.26-3.06-4.41zm-26 4a8.49 8.49 0 00-2.32 1l-.48-.48a8.49 8.49 0 001-2.32 13 13 0 00.15-6.16A6.35 6.35 0 0087 87.53l.3-.24a7.87 7.87 0 002.78 1.26 13 13 0 006.16.15 6.35 6.35 0 001.53-.57l.53.73a7.13 7.13 0 00-.5 1.41 13 13 0 00.2 6.16 8.25 8.25 0 001 2.31l-.42.39a6.65 6.65 0 00-2.25-1 13 13 0 00-6.22.15z" class="cls-3"/>
    <path d="M96.73 93.39L93 97.09l-3.7-3.7 3.7-3.71z" class="cls-3"/>
    <path d="M120.22 73.66c-2.22 4.1-10.83 3.17-10.83 3.17s.37-8.47 2.54-10.12c3.09-2.36 3.8 3.64 3.8 3.64s5.45 1.54 4.49 3.31zm0 39.51c-2.22-4.1-10.83-3.17-10.83-3.17s.37 8.47 2.54 10.12c3.09 2.36 3.8-3.63 3.8-3.63s5.45-1.55 4.49-3.32zm-54.4-40.35C68 76.92 76.65 76 76.65 76s-.37-8.48-2.53-10.13C71 63.5 70.31 69.5 70.31 69.5s-5.45 1.55-4.49 3.32zm4.49 43.67s.71 6 3.81 3.63c2.16-1.65 2.53-10.12 2.53-10.12s-8.61-.93-10.83 3.17c-.96 1.77 4.49 3.32 4.49 3.32z" class="cls-6"/>
    <path d="M62 87.89V62h62v26h-.25c-.18-9.33-1.21-17.55-3.19-19.24-9.57-8.16-45.9-8.76-54.91 0-1.87 1.81-3 10-3.32 19.24-.13-.08-.23-.11-.33-.11zm61.61 10.67c-.46 9.82-1.79 18.66-3.89 20.36-6.85 5.57-44.29 7.06-53.8-.13-2.15-1.63-3.34-10.43-3.62-20.24H62V124h62V98.52a2.58 2.58 0 01-.41.04z" class="cls-3"/>
    <rect width="62" height="62" x="123.98" y="62" class="cls-2"/>
    <g clip-path="url(#clip-path-6)">
      <path d="M127 127.13s5.6-10.52 14.36-16.74c3.32-2.36 10.25-2.38 9.72 3.72-.31 3.63-2.59 3.31-3.29 3-2.67-1-1.64-3.24-.33-3.51.58-.9-3.61-3.51-4.27 2.18a3.07 3.07 0 00-2.67-.63 1.92 1.92 0 00-.7 3c-4-.06-5.83 2-3.34 4 .43.36 1.27 0 1.52-.5-.41-.24-1-.67-.67-1.17 1.49-2.31 6.63 1.83 11.06-.36a7.58 7.58 0 004.26-5.54s.94-6.15-4.12-7.5a9.78 9.78 0 00-8 1.22 9.84 9.84 0 001.56-8c-1.12-5.11-7.31-4.44-7.31-4.44a7.61 7.61 0 00-5.73 4c-2.37 4.33 1.54 9.64-.83 11-.52.3-.92-.3-1.14-.72-.55.23-.92 1.06-.58 1.5 2 2.58 4 .81 4.16-3.16a1.93 1.93 0 003.06-.57 3 3 0 00-.52-2.69c5.72-.42 3.29-4.71 2.37-4.17-.33 1.3-2.58 2.22-3.49-.48-.24-.72-.46-3 3.18-3.16 6.12-.26 5.78 6.65 3.29 9.88-6.57 8.51-17.35 13.6-17.35 13.6z" class="cls-3"/>
      <path d="M146.38 104.37a1.77 1.77 0 00-3.42-.61l-.84 2.86s2.35-.49 2.49-.49a1.73 1.73 0 001.21-.48 1.8 1.8 0 00.56-1.28zM183 127.13s-5.59-10.52-14.35-16.74c-3.32-2.36-10.25-2.38-9.72 3.72.31 3.63 2.59 3.31 3.29 3 2.67-1 1.64-3.24.33-3.51-.58-.9 3.6-3.51 4.27 2.18a3.07 3.07 0 012.67-.63 1.92 1.92 0 01.7 3c4-.06 5.83 2 3.34 4-.43.36-1.27 0-1.53-.5.42-.24 1-.67.67-1.17-1.49-2.31-6.62 1.83-11.06-.36a7.59 7.59 0 01-4.25-5.54s-.94-6.15 4.12-7.5a9.78 9.78 0 018 1.22 9.84 9.84 0 01-1.56-8c1.12-5.11 7.31-4.44 7.31-4.44a7.6 7.6 0 015.72 4c2.38 4.33-1.53 9.64.84 11 .52.3.92-.3 1.14-.72.55.23.91 1.06.57 1.5-1.95 2.58-4 .81-4.15-3.16a1.93 1.93 0 01-3.06-.57 3 3 0 01.51-2.69c-5.71-.42-3.29-4.71-2.36-4.17.33 1.3 2.58 2.22 3.49-.48.24-.72.46-3-3.18-3.16-6.12-.26-5.79 6.65-3.29 9.88 6.57 8.51 17.35 13.6 17.35 13.6z" class="cls-3"/>
      <path d="M163.59 104.37a1.77 1.77 0 013.42-.61l.84 2.86s-2.35-.49-2.5-.49a1.71 1.71 0 01-1.2-.48 1.76 1.76 0 01-.56-1.28zM127 59s5.6 10.51 14.36 16.74c3.32 2.36 10.25 2.37 9.72-3.73-.31-3.62-2.59-3.3-3.29-3-2.67 1-1.64 3.23-.33 3.51.58.89-3.61 3.5-4.27-2.19a3 3 0 01-2.67.64 1.92 1.92 0 01-.7-3c-4 .06-5.83-1.95-3.34-4 .43-.36 1.27 0 1.52.51-.41.24-1 .66-.67 1.17 1.49 2.3 6.63-1.83 11.06.35a7.61 7.61 0 014.26 5.54s.94 6.16-4.12 7.5a9.8 9.8 0 01-8-1.21 9.82 9.82 0 011.56 8c-1.12 5.11-7.31 4.44-7.31 4.44a7.61 7.61 0 01-5.73-4c-2.37-4.34 1.54-9.65-.83-11-.52-.31-.92.29-1.14.72-.55-.23-.92-1.06-.58-1.51 2-2.57 4-.8 4.16 3.16a1.92 1.92 0 013.06.58 3 3 0 01-.52 2.68c5.72.42 3.29 4.72 2.37 4.18-.33-1.3-2.58-2.23-3.49.48-.24.71-.46 3 3.18 3.16 6.12.26 5.78-6.66 3.29-9.88-6.57-8.51-17.35-13.61-17.35-13.61z" class="cls-3"/>
      <path d="M146.38 81.73a1.77 1.77 0 01-3.42.61l-.84-2.87s2.35.49 2.49.49a1.74 1.74 0 011.21.49 1.78 1.78 0 01.56 1.28zM183 59s-5.59 10.51-14.35 16.74c-3.32 2.36-10.25 2.37-9.72-3.73.31-3.62 2.59-3.3 3.29-3 2.67 1 1.64 3.23.33 3.51-.58.89 3.6 3.5 4.27-2.19a3 3 0 002.67.64 1.92 1.92 0 00.7-3c4 .06 5.83-1.95 3.34-4-.43-.36-1.27 0-1.53.51.42.24 1 .66.67 1.17-1.49 2.3-6.62-1.83-11.06.35a7.62 7.62 0 00-4.25 5.54s-.94 6.16 4.12 7.5a9.8 9.8 0 008-1.21 9.82 9.82 0 00-1.56 8c1.12 5.11 7.31 4.44 7.31 4.44a7.6 7.6 0 005.72-4c2.38-4.34-1.53-9.65.84-11 .52-.31.92.29 1.14.72a1.12 1.12 0 00.57-1.51c-1.95-2.57-4-.8-4.15 3.16a1.92 1.92 0 00-3.06.58 3 3 0 00.51 2.68c-5.71.42-3.29 4.72-2.36 4.18.33-1.3 2.58-2.23 3.49.48.24.71.46 3-3.18 3.16-6.12.26-5.79-6.66-3.29-9.88 6.57-8.51 17.35-13.61 17.35-13.61z" class="cls-3"/>
      <path d="M163.59 81.73a1.77 1.77 0 003.42.61l.84-2.87s-2.35.49-2.5.49a1.72 1.72 0 00-1.2.49 1.74 1.74 0 00-.56 1.28z" class="cls-3"/>
      <path d="M155 87.81a4.9 4.9 0 011.71.32 9.24 9.24 0 00-1.69-10 9.27 9.27 0 00-1.69 10 5.15 5.15 0 011.67-.32zM149.93 92.92a4.94 4.94 0 01.27-1.55A9.21 9.21 0 00140.07 93a9.25 9.25 0 006.3 2.47 9.07 9.07 0 003.87-.86 5 5 0 01-.31-1.69zM163.67 90.61a9.19 9.19 0 00-3.78.82 4.9 4.9 0 01.25 1.49 5.08 5.08 0 01-.34 1.79 9.22 9.22 0 0010.2-1.62 9.28 9.28 0 00-6.33-2.48zM155 98a4.86 4.86 0 01-1.63-.29 9.14 9.14 0 00-.91 4A9.24 9.24 0 00155 108a9.21 9.21 0 001.59-10.24A4.91 4.91 0 01155 98z" class="cls-9"/>
      <path d="M151 89.87a5.24 5.24 0 011-1 8.07 8.07 0 00-1.63-3 1.7 1.7 0 00-2.4 2.4 8 8 0 003.03 1.6zM158.92 96.19a5.28 5.28 0 01-.94.89 7.57 7.57 0 001.66 3.17 1.7 1.7 0 002.4-2.4 8.09 8.09 0 00-3.12-1.66zM159.24 90a8.16 8.16 0 003-1.62 1.69 1.69 0 00-2.39-2.4 8 8 0 00-1.61 2.93 5.13 5.13 0 011 1.09zM151 96a7.58 7.58 0 00-3.21 1.67 1.69 1.69 0 002.39 2.4 7.58 7.58 0 001.67-3.21A4.94 4.94 0 01151 96z" class="cls-7"/>
      <path d="M153.21 62a9.29 9.29 0 001.79 9.74 9.23 9.23 0 002.48-6.3 9.36 9.36 0 00-.66-3.44zM123.94 94.84a9.29 9.29 0 009.75-1.84 9.24 9.24 0 00-9.69-1.79zM156.79 124.1a9.13 9.13 0 00.67-3.44 9.28 9.28 0 00-2.48-6.31 9.26 9.26 0 00-1.82 9.74zM186.06 91.26a9.23 9.23 0 00-9.75 1.81 9.24 9.24 0 009.69 1.82z" class="cls-9"/>
    </g>
    <path d="M248 124h-62V62h62z" class="cls-3"/>
    <path d="M228.43 122.47c1.3-1.3 1.3-6.5 0-7.8 1.3 1.3 6.5 1.3 7.8 0-1.3 1.3-1.3 6.5 0 7.8-1.3-1.3-6.5-1.3-7.8 0zm-12.66 0c-1.3-1.3-1.3-6.5 0-7.8-1.3 1.3-6.5 1.3-7.8 0 1.3 1.3 1.3 6.5 0 7.8 1.3-1.3 6.5-1.3 7.8 0zm-20.46 0c-1.3-1.3-1.3-6.5 0-7.8-1.3 1.3-6.5 1.3-7.8 0 1.3 1.3 1.3 6.5 0 7.8 1.3-1.3 6.49-1.3 7.8 0zm51.15-10.23c-1.3-1.3-1.3-6.5 0-7.8-1.3 1.3-6.5 1.3-7.8 0 1.3 1.3 1.3 6.5 0 7.8 1.34-1.3 6.5-1.3 7.8 0zm-20.46 0c-1.3-1.3-1.3-6.5 0-7.8-1.3 1.3-6.5 1.3-7.8 0 1.3 1.3 1.3 6.5 0 7.8 1.3-1.3 6.5-1.3 7.8 0zm-20.46 0c-1.3-1.3-1.3-6.5 0-7.8-1.3 1.3-6.5 1.3-7.8 0 1.3 1.3 1.3 6.5 0 7.8 1.26-1.3 6.5-1.3 7.8 0zM236.23 102c-1.3-1.3-1.3-6.5 0-7.8-1.3 1.3-6.5 1.3-7.8 0 1.3 1.3 1.3 6.5 0 7.8 1.3-1.29 6.5-1.29 7.8 0zm-20.46 0c-1.3-1.3-1.3-6.5 0-7.8-1.3 1.3-6.5 1.3-7.8 0 1.3 1.3 1.3 6.5 0 7.8 1.3-1.29 6.5-1.29 7.8 0zm-20.46 0c-1.3-1.3-1.3-6.5 0-7.8-1.3 1.3-6.5 1.3-7.8 0 1.3 1.3 1.3 6.5 0 7.8 1.3-1.29 6.49-1.29 7.8 0zm51.15-10.23c-1.3-1.3-1.3-6.5 0-7.8-1.3 1.3-6.5 1.3-7.8 0 1.3 1.3 1.3 6.5 0 7.8 1.34-1.29 6.5-1.29 7.8.01zm-20.46 0c-1.3-1.3-1.3-6.5 0-7.8-1.3 1.3-6.5 1.3-7.8 0 1.3 1.3 1.3 6.5 0 7.8 1.3-1.29 6.5-1.29 7.8.01zm-20.46 0c-1.3-1.3-1.3-6.5 0-7.8-1.3 1.3-6.5 1.3-7.8 0 1.3 1.3 1.3 6.5 0 7.8 1.26-1.29 6.5-1.29 7.8.01zm30.69-10.23c-1.3-1.3-1.3-6.5 0-7.8-1.3 1.3-6.5 1.3-7.8 0 1.3 1.3 1.3 6.5 0 7.8 1.3-1.29 6.5-1.29 7.8.01zm-20.46 0c-1.3-1.3-1.3-6.5 0-7.8-1.3 1.3-6.5 1.3-7.8 0 1.3 1.3 1.3 6.5 0 7.8 1.3-1.29 6.5-1.29 7.8.01zm-20.46 0c-1.3-1.3-1.3-6.5 0-7.8-1.3 1.3-6.5 1.3-7.8 0 1.3 1.3 1.3 6.5 0 7.8 1.3-1.29 6.49-1.29 7.8.01zm51.15-10.23c-1.3-1.3-1.3-6.5 0-7.8-1.3 1.3-6.5 1.3-7.8 0 1.3 1.3 1.3 6.5 0 7.8 1.34-1.31 6.5-1.31 7.8.01zm-20.46 0c-1.3-1.3-1.3-6.5 0-7.8-1.3 1.3-6.5 1.3-7.8 0 1.3 1.3 1.3 6.5 0 7.8 1.3-1.31 6.5-1.31 7.8.01zm-20.46 0c-1.3-1.3-1.3-6.5 0-7.8-1.3 1.3-6.5 1.3-7.8 0 1.3 1.3 1.3 6.5 0 7.8 1.26-1.31 6.5-1.31 7.8.01z" class="cls-7"/>
    <path d="M238.66 122.47c1.3-1.3 1.3-6.5 0-7.8 1.3 1.3 6.5 1.3 7.8 0-1.3 1.3-1.3 6.5 0 7.8-1.3-1.3-6.46-1.3-7.8 0zm-12.66 0c-1.3-1.3-1.3-6.5 0-7.8-1.3 1.3-6.5 1.3-7.8 0 1.3 1.3 1.3 6.5 0 7.8 1.3-1.3 6.5-1.3 7.8 0zm-20.46 0c-1.3-1.3-1.3-6.5 0-7.8-1.3 1.3-6.5 1.3-7.8 0 1.3 1.3 1.3 6.5 0 7.8 1.26-1.3 6.5-1.3 7.8 0zm30.69-10.23c-1.3-1.3-1.3-6.5 0-7.8-1.3 1.3-6.5 1.3-7.8 0 1.3 1.3 1.3 6.5 0 7.8 1.3-1.3 6.5-1.3 7.8 0zm-20.46 0c-1.3-1.3-1.3-6.5 0-7.8-1.3 1.3-6.5 1.3-7.8 0 1.3 1.3 1.3 6.5 0 7.8 1.3-1.3 6.5-1.3 7.8 0zm-20.46 0c-1.3-1.3-1.3-6.5 0-7.8-1.3 1.3-6.5 1.3-7.8 0 1.3 1.3 1.3 6.5 0 7.8 1.3-1.3 6.49-1.3 7.8 0zM246.46 102c-1.3-1.3-1.3-6.5 0-7.8-1.3 1.3-6.5 1.3-7.8 0 1.3 1.3 1.3 6.5 0 7.8 1.34-1.29 6.5-1.29 7.8 0zM226 102c-1.3-1.3-1.3-6.5 0-7.8-1.3 1.3-6.5 1.3-7.8 0 1.3 1.3 1.3 6.5 0 7.8 1.3-1.29 6.5-1.29 7.8 0zm-20.46 0c-1.3-1.3-1.3-6.5 0-7.8-1.3 1.3-6.5 1.3-7.8 0 1.3 1.3 1.3 6.5 0 7.8 1.26-1.29 6.5-1.29 7.8 0zm30.69-10.23c-1.3-1.3-1.3-6.5 0-7.8-1.3 1.3-6.5 1.3-7.8 0 1.3 1.3 1.3 6.5 0 7.8 1.3-1.29 6.5-1.29 7.8.01zm-20.46 0c-1.3-1.3-1.3-6.5 0-7.8-1.3 1.3-6.5 1.3-7.8 0 1.3 1.3 1.3 6.5 0 7.8 1.3-1.29 6.5-1.29 7.8.01zm-20.46 0c-1.3-1.3-1.3-6.5 0-7.8-1.3 1.3-6.5 1.3-7.8 0 1.3 1.3 1.3 6.5 0 7.8 1.3-1.29 6.49-1.29 7.8.01zm51.15-10.23c-1.3-1.3-1.3-6.5 0-7.8-1.3 1.3-6.5 1.3-7.8 0 1.3 1.3 1.3 6.5 0 7.8 1.34-1.29 6.5-1.29 7.8.01zm-20.46 0c-1.3-1.3-1.3-6.5 0-7.8-1.3 1.3-6.5 1.3-7.8 0 1.3 1.3 1.3 6.5 0 7.8 1.3-1.29 6.5-1.29 7.8.01zm-20.46 0c-1.3-1.3-1.3-6.5 0-7.8-1.3 1.3-6.5 1.3-7.8 0 1.3 1.3 1.3 6.5 0 7.8 1.26-1.29 6.5-1.29 7.8.01zm30.69-10.23c-1.3-1.3-1.3-6.5 0-7.8-1.3 1.3-6.5 1.3-7.8 0 1.3 1.3 1.3 6.5 0 7.8 1.3-1.31 6.5-1.31 7.8.01zm-20.46 0c-1.3-1.3-1.3-6.5 0-7.8-1.3 1.3-6.5 1.3-7.8 0 1.3 1.3 1.3 6.5 0 7.8 1.3-1.31 6.5-1.31 7.8.01zm-20.46 0c-1.3-1.3-1.3-6.5 0-7.8-1.3 1.3-6.5 1.3-7.8 0 1.3 1.3 1.3 6.5 0 7.8 1.3-1.31 6.49-1.31 7.8.01z" class="cls-2"/>
    <path d="M31 38.75v7.74h-7.76zM15.48 31v7.74L23.22 31zm0 7.78v7.72h7.72zM23.22 31L31 38.75V31zM62 38.79v7.7h-7.7zM54.26 31L62 38.71V31zm-7.77 0v7.74L54.26 31zm0 7.78v7.72h7.75l-7.73-7.74zM7.66 62H0v-7.69zm7.8-7.73L7.74 62h7.74v-7.71zm-7.74-7.78l7.76 7.76v-7.76zm0 0H0v7.74l7.7-7.72zM38.71 62H31v-7.73zm.08 0h7.7v-7.71zm0-15.51l7.74 7.74v-7.74zm0 0H31v7.78l7.76-7.76zm0-31L31 23.23V15.5zM31 23.23V31h7.76zM38.75 31h7.74v-7.75zm0-15.49l7.72 7.71V15.5zm-31.09 0L0 23.19V15.5zM0 23.27V31h7.7zm7.72-7.77l7.74 7.73V15.5zm7.74 7.73L7.7 31h7.78v-7.75zM62 0v7.68L54.3 0zm-7.74 15.48H62V7.76zM46.49 0v7.7L54.22 0zm0 7.74v7.76h7.75l-7.73-7.78zM23.24 15.5L31 7.72v7.78zm0 0l-7.76-7.76v7.76h7.72zM23.26 0L31 7.72V0zm-.08 0h-7.7v7.7z" class="cls-7"/>
    <path d="M31 38.76l-7.76 7.74-7.72-7.72 7.7-7.78zm31 0v.08l-7.7 7.7-7.73-7.74 7.69-7.8zM15.46 54.27L7.74 62h-.08L0 54.31v-.08l7.7-7.72zm31 0L38.79 62h-.08L31 54.27l7.76-7.76zm0-31L38.75 31 31 23.23l7.74-7.73zm-31 0L7.7 31 0 23.27v-.08l7.7-7.69zM62 7.68v.08l-7.72 7.72-7.77-7.76L54.22 0h.08zm-46.5 0L23.18 0h.08L31 7.72l-7.76 7.76-7.76-7.74z" class="cls-9"/>
    <path d="M15.46 38.75l-7.74 7.74L0 38.79v-.08L7.7 31zm31 0l-7.72 7.72L31 38.75 38.75 31zM62 54.23v.08L54.3 62h-.08l-7.71-7.73 7.75-7.76zm-31 0L23.27 62h-.09l-7.7-7.71 7.74-7.74zm0-31L23.22 31l-7.74-7.74 7.72-7.76zm31 0v.08L54.26 31l-7.75-7.76 7.73-7.73zM0 7.76v-.08L7.66 0h.08l7.72 7.72-7.76 7.76zM38.7 0h.08l7.7 7.7-7.74 7.74L31 7.72z" class="cls-2"/>
    <path d="M15.48 38.74L7.7 31h7.78zm0 0L7.72 46.5h7.76v-7.72zM0 31v7.72L7.7 31zm7.7 15.5H0v-7.7zM46.49 31v7.74L38.75 31zM31 38.75v7.74h7.74zM31 31v7.76L38.75 31zm7.78 15.5h7.72v-7.73zM62 54.31V62h-7.7zm-7.7-7.82l7.7 7.74v-7.74zm0 0h-7.81v7.76l7.75-7.76zm-7.75 7.8V62h7.73l-7.71-7.73zm-15.5 0V62h-7.78zm-15.51 0V62h7.7zm7.76-7.8l7.7 7.78v-7.78zm0 0h-7.82v7.76l7.74-7.74zm0-31l-7.72 7.71v-7.7zm-7.72 7.75V31h7.74zm7.76-7.75L31 23.23V15.5zm0 15.49H31v-7.75zM62 23.27V31h-7.74zm-7.7-7.77l7.7 7.69V15.5zm-7.79 7.75V31h7.77l-7.75-7.76zm0-7.75v7.71l7.73-7.73zM7.66 0L0 7.68V0zm7.82 0H7.74l7.72 7.72zm0 15.5V7.74L7.7 15.48zm-7.78 0L0 7.76v7.74h7.7zm31.06 0l7.74-7.74v7.74zm0 0L31 7.72v7.78zM31 0v7.72L38.7 0zm15.5 0h-7.7l7.7 7.7z" class="cls-3"/>
    <g clip-path="url(#clip-path-7)">
      <rect width="62.51" height="62.51" x="61.83" y="-.16" class="cls-2"/>
      <path d="M88.27 62h-4c0-21.36 18.14-39.39 39.62-39.39v4c-18.97.01-35.62 16.55-35.62 35.39z" class="cls-3"/>
      <circle cx="123.73" cy="30.86" r="8.65" class="cls-9"/>
      <circle cx="123.73" cy="30.86" r="6.18" class="cls-7"/>
      <circle cx="92.93" cy="61.75" r="9.22" class="cls-9"/>
      <circle cx="92.93" cy="61.75" r="6.59" class="cls-7"/>
      <path d="M62.07 39.71v-4c19.17 0 36-16.65 36-35.63h4c-.01 21.11-18.69 39.63-40 39.63z" class="cls-3"/>
      <circle cx="93.19" cy=".01" r="8.68" class="cls-9"/>
      <circle cx="93.19" cy=".01" r="6.2" class="cls-7"/>
      <path d="M123.89 39.38c-21.48 0-39.62-18-39.62-39.4h4c0 18.85 16.65 35.39 35.62 35.39z" class="cls-3"/>
      <circle cx="62.6" cy="31.33" r="8.98" class="cls-9"/>
      <circle cx="62.6" cy="31.33" r="6.41" class="cls-7"/>
      <path d="M102.06 61.91h-4c0-19-16.82-35.63-36-35.63v-4c21.32 0 40 18.52 40 39.63z" class="cls-3"/>
      <path d="M74.14 41.69c1.37-.94 8.4-2.42 8.84-2.12 0 0-.32 7.54-2.06 9.34-1.29 1.34-1.67.79-9.33 4.41a13.47 13.47 0 00-3.73 2.44l-1.47-.16a13.83 13.83 0 003-3.89c3.17-5.71 2.21-8.28 4.75-10.02zM66.39 55.6l1.47.16a7.88 7.88 0 00-1.18 1.42 6.4 6.4 0 00-1.07 2.43 9.28 9.28 0 00.26 4l-5.42-.13v-7a12.1 12.1 0 004.75-.25 4 4 0 001.19-.63z" class="cls-9"/>
      <path d="M67.13 60.27c-.61-.05-.15-3.51 3.82-5.33 5.67-2.59 7.15 0 7.6 1 1.79 4-5.14 9-8.16 6.93-1.29-.89 4.29-2.27 4.12-4.43-.09-1.1-.58-1.36-1.19-1.41-3.78-.34-5.15 3.32-6.19 3.24zM61.54 54.67c0 .62 3.44.7 5.85-3 3.43-5.19 1.14-7 .24-7.64-3.63-2.39-9.69 3.68-8.11 7 .68 1.4 2.9-3.89 5-3.39 1.07.25 1.25.78 1.2 1.39-.27 3.82-4.1 4.61-4.18 5.64z" class="cls-6"/>
      <path d="M70.67 57.87a1.81 1.81 0 01-1.89 1.74c-1.13 0-6.5-5.85-5.84-6.84s1.08-1.5 1.86-1.13 5.59 4.95 5.87 6.23z" class="cls-7"/>
      <path d="M74.14 20.37c1.37.93 8.4 2.42 8.84 2.12 0 0-.32-7.53-2.06-9.33-1.29-1.35-1.67-.79-9.33-4.43a13.12 13.12 0 01-3.73-2.42l-1.47.16a13.58 13.58 0 013 3.88c3.17 5.65 2.21 8.29 4.75 10.02zM66.39 6.47l1.47-.16a8 8 0 01-1.18-1.44 6.14 6.14 0 01-1.07-2.42 9.25 9.25 0 01.26-4l-5.42.12v7a11.89 11.89 0 014.75.25 3.52 3.52 0 011.19.65z" class="cls-9"/>
      <path d="M67.13 1.79c-.61.05-.13 3.52 3.87 5.33 5.67 2.59 7.15 0 7.6-.94 1.79-4-5.14-9-8.16-6.93-1.29.88 4.29 2.26 4.12 4.43-.09 1.1-.58 1.36-1.19 1.4-3.83.3-5.2-3.37-6.24-3.29zM61.54 7.39c0-.61 3.44-.7 5.85 3 3.43 5.2 1.14 7.06.24 7.65-3.63 2.38-9.69-3.69-8.11-7 .68-1.41 2.9 3.89 5 3.39 1.07-.26 1.25-.79 1.2-1.39-.27-3.83-4.1-4.61-4.18-5.65z" class="cls-6"/>
      <path d="M70.67 4.2a1.82 1.82 0 00-1.89-1.75c-1.13 0-6.5 5.85-5.84 6.84s1.08 1.5 1.86 1.13 5.59-4.95 5.87-6.22z" class="cls-7"/>
      <path d="M110.42 20.37c-1.37.93-8.4 2.42-8.83 2.12 0 0 .3-7.53 2-9.33 1.29-1.35 1.68-.79 9.33-4.43a13.15 13.15 0 003.74-2.42l1.46.16a13.58 13.58 0 00-3 3.88C112 16 113 18.64 110.42 20.37zM118.17 6.47l-1.46-.16a8.48 8.48 0 001.18-1.44A6.29 6.29 0 00119 2.45a9.25 9.25 0 00-.26-4l5.42.12v7a11.89 11.89 0 00-4.75.25 3.52 3.52 0 00-1.24.65z" class="cls-9"/>
      <path d="M117.43 1.79c.61.05.15 3.52-3.82 5.33-5.67 2.59-7.15 0-7.6-.94-1.79-4 5.14-9 8.16-6.93 1.29.88-4.29 2.26-4.12 4.43.09 1.1.58 1.36 1.19 1.4 3.76.3 5.15-3.37 6.19-3.29zM123 7.39c0-.61-3.44-.7-5.85 3-3.43 5.2-1.14 7.06-.24 7.65 3.63 2.38 9.69-3.69 8.11-7-.68-1.41-2.9 3.89-5 3.39-1.07-.26-1.25-.79-1.2-1.39.29-3.83 4.12-4.61 4.18-5.65z" class="cls-6"/>
      <path d="M113.89 4.2a1.82 1.82 0 011.89-1.75c1.13 0 6.5 5.85 5.84 6.84s-1.08 1.5-1.86 1.13-5.59-4.95-5.87-6.22z" class="cls-7"/>
      <path d="M110.42 41.69c-1.37-.94-8.4-2.42-8.83-2.12 0 0 .3 7.54 2 9.34 1.29 1.34 1.68.79 9.33 4.41a13.5 13.5 0 013.74 2.44l1.46-.16a13.83 13.83 0 01-3-3.89C112 46 113 43.43 110.42 41.69zM118.17 55.6l-1.46.16a8.32 8.32 0 011.18 1.42 6.56 6.56 0 011.11 2.43 9.28 9.28 0 01-.26 4l5.42-.13v-7a12.1 12.1 0 01-4.75-.25 4 4 0 01-1.24-.63z" class="cls-9"/>
      <path d="M117.43 60.27c.61-.05.15-3.51-3.82-5.33-5.67-2.59-7.15 0-7.6 1-1.79 4 5.14 9 8.16 6.93 1.29-.89-4.29-2.27-4.12-4.43.09-1.1.58-1.36 1.19-1.41 3.76-.34 5.15 3.32 6.19 3.24zM123 54.67c0 .62-3.44.7-5.85-3-3.43-5.19-1.14-7-.24-7.64 3.63-2.39 9.69 3.68 8.11 7-.68 1.4-2.9-3.89-5-3.39-1.07.25-1.25.78-1.2 1.39.29 3.82 4.12 4.61 4.18 5.64z" class="cls-6"/>
      <path d="M113.89 57.87a1.81 1.81 0 001.89 1.74c1.13 0 6.5-5.85 5.84-6.84s-1.08-1.5-1.86-1.13-5.59 4.95-5.87 6.23z" class="cls-7"/>
    </g>
    <rect width="62" height="62" x="123.98" class="cls-2"/>
    <g clip-path="url(#clip-path-8)">
      <path d="M165.53 38v3.83h-3.46a7 7 0 01-13.91 0h-3.29V38h-.17a7 7 0 110-14h.17v-3.87h3.29a7 7 0 0113.91 0h3.46v3.92a7 7 0 010 13.93zm-50.4-31.69h.16v3.84h3.29a7 7 0 0013.92 0h3.5V6.3a7 7 0 006.72-7 7 7 0 00-6.72-7v-3.91h-3.5a7 7 0 00-7-6.55 7 7 0 00-7 6.55h-3.29v3.9h-.16a7 7 0 00-7 7 7 7 0 007.08 7.02zM174 6.3v3.84h3.45a7 7 0 0013.92 0h3.29V6.3h.16a7 7 0 007-7 7 7 0 00-7-7h-.16v-3.9h-3.3a7 7 0 00-6.95-6.55 7 7 0 00-7 6.55H174v3.91a7 7 0 00-6.72 7A7 7 0 00174 6.3zm-38 49.39v-3.84h-3.5a7 7 0 00-13.92 0h-3.29v3.84h-.16a7 7 0 100 13.95h.16v3.9h3.29a7 7 0 0013.92 0h3.5v-3.92a7 7 0 000-13.93zm58.89 0h-.16v-3.84h-3.29a7 7 0 00-13.92 0H174v3.84a7 7 0 000 13.93v3.91h3.45a7 7 0 0013.91 0h3.3v-3.9h.16a7 7 0 100-13.95zM156.84.08a2 2 0 01-2 2 2 2 0 110-4 2 2 0 012 2zM124 29.1a2 2 0 102 2 2 2 0 00-2-2zm61.87 0a2 2 0 102 2 2 2 0 00-2-2zm-31 30.84a2 2 0 102 2 2 2 0 00-2.03-2z" class="cls-9"/>
      <path d="M152.79 2.89a.88.88 0 11-.88-.88.88.88 0 01.88.88zm-.88-6.48a.88.88 0 00-.88.88.87.87 0 00.88.88.88.88 0 00.88-.88.89.89 0 00-.88-.88zm11.77 10.82a1.53 1.53 0 00.55-.25 1.15 1.15 0 00.26-1.61c-.27-.2-.84 1-2.15.78-.41-.06-.9-.52-1.15-.23s.33.93.4 1.45c.12.93-.6 1.39-.59 1.76s1 .48 1.44-.22a4.89 4.89 0 00.2-.48 2.32 2.32 0 002.13 1 2.23 2.23 0 00-1.09-2.2zm-1-15.48a4.89 4.89 0 00-.2-.48c-.42-.7-1.44-.45-1.44-.22s.71.83.59 1.76c-.07.53-.73 1.08-.4 1.45s.74-.17 1.15-.23c1.31-.21 1.88 1 2.15.79a1.16 1.16 0 00-.26-1.62 1.53 1.53 0 00-.55-.25 2.23 2.23 0 001.09-2.19 2.32 2.32 0 00-2.17.99zM158.07-6c-.51.93 1.21 1.87 2.13.39.38-.6.59-4.37-2.91-3.84a2.42 2.42 0 01.78 3.45zm3 1.33c-1.59.71-.9 2.55.1 2.16a2.41 2.41 0 013.31 1.24c.98-3.38-2.78-3.67-3.42-3.38zm-3.78 14.28c3.5.53 3.29-3.24 2.91-3.84-.92-1.48-2.64-.54-2.13.39a2.42 2.42 0 01-.78 3.45zm7.18-8.18a2.41 2.41 0 01-3.31 1.24c-1-.39-1.69 1.45-.1 2.16.64.29 4.4 0 3.41-3.4zM158 3.77a.88.88 0 10-.88-.88.88.88 0 00.88.88zM151.84-6a2.42 2.42 0 01.78-3.45c-3.5-.53-3.28 3.24-2.91 3.84.92 1.5 2.65.61 2.13-.39zm-2.13 11.77c-.37.6-.59 4.37 2.91 3.84a2.42 2.42 0 01-.78-3.45c.52-.93-1.21-1.87-2.13-.39zm-2.43 2.66a4.78 4.78 0 00.19.48c.42.7 1.44.45 1.45.22s-.71-.83-.59-1.76c.06-.52.73-1.08.4-1.45s-.75.17-1.15.23c-1.32.21-1.88-1-2.15-.78a1.16 1.16 0 00.25 1.63 1.61 1.61 0 00.55.25 2.25 2.25 0 00-1.09 2.19 2.35 2.35 0 002.14-1.01zM146.23-7a1.61 1.61 0 00-.55.25 1.17 1.17 0 00-.25 1.62c.27.19.83-1 2.15-.79.4.06.89.52 1.15.23s-.34-.92-.4-1.45c-.12-.93.6-1.39.59-1.76s-1-.48-1.45.22a4.78 4.78 0 00-.19.48 2.35 2.35 0 00-2.14-1 2.25 2.25 0 001.09 2.2zm-.79 5.8a2.42 2.42 0 013.32-1.24c1 .39 1.69-1.45.1-2.16-.65-.34-4.41-.05-3.42 3.35zm3.32 3.92a2.42 2.42 0 01-3.32-1.24c-1 3.4 2.77 3.69 3.42 3.4 1.59-.76.89-2.6-.1-2.21zM158-1.83a.88.88 0 00.88-.88.89.89 0 00-.88-.88.88.88 0 00-.88.88.87.87 0 00.88.88zm-32.66 23.3a2.42 2.42 0 011.24 3.32c-.38 1 1.45 1.69 2.17.1.3-.65.01-4.41-3.4-3.42zm-9.68 1.84a4.78 4.78 0 00-.48.19c-.69.42-.45 1.44-.22 1.45s.83-.71 1.76-.59c.53.06 1.08.73 1.45.4S118 24 118 23.61c-.2-1.32 1-1.88.79-2.15a1.16 1.16 0 00-1.62.25 1.61 1.61 0 00-.25.55 2.25 2.25 0 00-2.19-1.09 2.35 2.35 0 00.94 2.14zm14 2.43c-1.47.92-.54 2.65.39 2.13a2.43 2.43 0 013.46.78c.55-3.5-3.22-3.28-3.82-2.91zm-3.1 11.45a2.41 2.41 0 01-1.24 3.31c3.41 1 3.7-2.77 3.41-3.41-.73-1.59-2.52-.9-2.14.1zm3.49-3.09c-.93-.51-1.86 1.21-.39 2.13.6.38 4.37.59 3.85-2.91a2.43 2.43 0 01-3.43.78zm-3.27.82a.88.88 0 10-.88-.88.88.88 0 00.91.88zm5.54 3.75a4.89 4.89 0 00.48-.2c.7-.42.46-1.44.23-1.44-.38 0-.83.7-1.77.59-.52-.07-1.07-.73-1.45-.4s.17.74.23 1.15c.21 1.31-1 1.88-.78 2.15a1.15 1.15 0 001.61-.26 1.53 1.53 0 00.25-.55 2.24 2.24 0 002.2 1.09 2.34 2.34 0 00-.97-2.13zm-5.54-9.85a.88.88 0 10-.88-.88.88.88 0 00.91.88zm3.26-5.21c-.06.4-.52.89-.23 1.15s.93-.34 1.45-.4c.94-.12 1.39.6 1.77.59.23 0 .47-1-.23-1.45a4.78 4.78 0 00-.48-.19 2.36 2.36 0 001-2.14 2.26 2.26 0 00-2.2 1.09 1.61 1.61 0 00-.25-.55 1.15 1.15 0 00-1.61-.25c-.17.27 1.02.83.81 2.15zm-10.8 1.28c.71 1.59 2.55.89 2.17-.1a2.42 2.42 0 011.23-3.32c-3.37-.99-3.64 2.77-3.37 3.42zm-1.33 9.21a2.42 2.42 0 01-3.45-.78c-.52 3.5 3.24 3.29 3.84 2.91 1.51-.92.58-2.64-.36-2.13zm0 4.27c.07-.41.53-.9.23-1.15s-.92.33-1.45.4c-.93.11-1.38-.6-1.76-.59s-.47 1 .22 1.44a4.89 4.89 0 00.48.2 2.32 2.32 0 00-1 2.13 2.23 2.23 0 002.19-1.09 1.53 1.53 0 00.25.55 1.16 1.16 0 001.62.26c.24-.27-.94-.84-.69-2.15zm.38-12.63c-.6-.37-4.36-.59-3.84 2.91a2.42 2.42 0 013.45-.78c.98.52 1.91-1.21.43-2.13zm3.11 11.45c.38-1-1.46-1.69-2.17-.1-.29.64 0 4.4 3.4 3.41a2.41 2.41 0 01-1.19-3.31zm-.23-8.37a.88.88 0 10-.88-.88.88.88 0 00.92.88zm0 6.1a.88.88 0 10-.88-.88.88.88 0 00.92.88zm73 3.75a3.9 3.9 0 00.47-.2c.7-.42.46-1.44.23-1.44-.38 0-.83.7-1.76.59-.53-.07-1.08-.73-1.46-.4s.17.74.23 1.15c.21 1.31-1 1.88-.78 2.15a1.15 1.15 0 001.61-.26 1.53 1.53 0 00.25-.55 2.25 2.25 0 002.2 1.09 2.35 2.35 0 00-.96-2.13zm-13.06-13.78c.72 1.59 2.55.89 2.17-.1a2.42 2.42 0 011.23-3.32c-3.4-.99-3.69 2.77-3.4 3.42zm7.32 12.3a2.41 2.41 0 01-1.23 3.31c3.4 1 3.69-2.77 3.4-3.41-.72-1.59-2.55-.9-2.17.1zm-5.37-2.27a.88.88 0 10-.89-.88.89.89 0 00.89.88zm5.59 0a.88.88 0 10-.88-.88.88.88 0 00.88.88zm-5.59-6.1a.88.88 0 10-.89-.88.89.89 0 00.89.88zm5.59 0a.88.88 0 10-.88-.88.88.88 0 00.88.88zm3.28 5.28c-.94-.51-1.87 1.21-.39 2.13.6.38 4.36.59 3.84-2.91a2.42 2.42 0 01-3.45.78zm-4.73-12.63a2.42 2.42 0 011.23 3.32c-.38 1 1.45 1.69 2.17.1.29-.65 0-4.41-3.4-3.42zm-7.41 16.9c.07-.41.53-.9.23-1.15s-.92.33-1.45.4c-.93.11-1.38-.6-1.76-.59-.23 0-.47 1 .23 1.44a3.9 3.9 0 00.47.2 2.35 2.35 0 00-1 2.13 2.23 2.23 0 002.19-1.09 1.72 1.72 0 00.25.55 1.16 1.16 0 001.62.26c.2-.27-.98-.84-.78-2.15zm3.49-1.18c.38-1-1.45-1.69-2.17-.1-.29.64 0 4.4 3.4 3.41a2.41 2.41 0 01-1.23-3.31zm8.63-13.58c-.06.4-.52.89-.23 1.15s.93-.34 1.46-.4c.93-.12 1.38.6 1.76.59.23 0 .47-1-.23-1.45a3.85 3.85 0 00-.47-.19 2.37 2.37 0 001-2.14 2.27 2.27 0 00-2.2 1.09 1.61 1.61 0 00-.25-.55 1.15 1.15 0 00-1.61-.25c-.21.27.98.83.77 2.15zm-14.4-.3a3.85 3.85 0 00-.47.19c-.7.42-.46 1.44-.23 1.45.38 0 .83-.71 1.76-.59.53.06 1.08.73 1.45.4s-.16-.75-.23-1.15c-.2-1.32 1-1.88.79-2.15a1.16 1.16 0 00-1.62.25 1.83 1.83 0 00-.25.55 2.25 2.25 0 00-2.19-1.09 2.37 2.37 0 00.99 2.14zm14.42 4.56a2.42 2.42 0 013.45.78c.52-3.5-3.24-3.28-3.84-2.91-1.48.92-.54 2.65.39 2.13zm-11.76-2.13c-.6-.37-4.36-.59-3.84 2.91a2.42 2.42 0 013.45-.78c.94.52 1.87-1.21.39-2.13zm-.39 8.36a2.42 2.42 0 01-3.45-.78c-.52 3.5 3.24 3.29 3.84 2.91 1.48-.92.55-2.64-.39-2.13zm-18.62 25.26a2.41 2.41 0 013.31 1.23c1-3.4-2.77-3.69-3.41-3.4-1.59.71-.9 2.55.1 2.17zm-1-3.11c.38-.6.59-4.36-2.91-3.84a2.42 2.42 0 01.78 3.45c-.47.94 1.25 1.87 2.17.39zM158 60a.88.88 0 10-.88-.88.88.88 0 00.88.88zm5.67 9.06a1.53 1.53 0 00.55-.25 1.15 1.15 0 00.26-1.61c-.27-.2-.84 1-2.15.78-.41-.06-.9-.52-1.15-.23s.33.93.4 1.45c.12.94-.6 1.39-.59 1.77 0 .23 1 .47 1.44-.23a4.73 4.73 0 00.2-.47 2.35 2.35 0 002.13 1 2.24 2.24 0 00-1.08-2.2zm-11.77-5.22a.88.88 0 10.88.88.87.87 0 00-.87-.87zm6.17 4.16a2.43 2.43 0 01-.78 3.46c3.5.52 3.29-3.25 2.91-3.85-.92-1.47-2.64-.54-2.13.39zm-6.16-9.75a.88.88 0 10.88.88.88.88 0 00-.88-.88zm6.1 7.36a.88.88 0 10-.88-.88.88.88 0 00.87.88zm4.63-12a3.9 3.9 0 00-.2-.47c-.42-.7-1.44-.46-1.44-.23s.71.83.59 1.76c-.07.53-.73 1.08-.4 1.45s.74-.16 1.15-.23c1.31-.2 1.88 1 2.15.79a1.16 1.16 0 00-.26-1.62 1.53 1.53 0 00-.55-.25 2.23 2.23 0 001.09-2.19 2.32 2.32 0 00-2.13.97zm1.83 9.69a2.41 2.41 0 01-3.31 1.23c-1-.38-1.69 1.45-.1 2.17.64.3 4.4-.02 3.41-3.42zm-11.85-10.89c-3.5-.52-3.28 3.24-2.91 3.84.92 1.48 2.65.55 2.13-.39a2.42 2.42 0 01.78-3.45zM151.84 68c.52-.93-1.21-1.86-2.13-.39-.37.6-.59 4.37 2.91 3.85a2.43 2.43 0 01-.78-3.46zm-6.4-7.41a2.42 2.42 0 013.32-1.23c1 .38 1.69-1.46.1-2.17-.65-.29-4.41 0-3.42 3.4zm.79-5.8a1.61 1.61 0 00-.55.25 1.17 1.17 0 00-.25 1.62c.27.19.83-1 2.15-.79.4.07.89.53 1.15.23s-.34-.92-.4-1.45c-.12-.93.6-1.38.59-1.76s-1-.47-1.45.23a3.85 3.85 0 00-.19.47 2.35 2.35 0 00-2.14-1 2.25 2.25 0 001.09 2.2zm2.1 14.42c.06-.52.73-1.07.4-1.45s-.75.17-1.15.23c-1.32.21-1.88-1-2.15-.78a1.16 1.16 0 00.25 1.61 1.61 1.61 0 00.55.25 2.26 2.26 0 00-1.09 2.2 2.37 2.37 0 002.14-1 4.62 4.62 0 00.19.47c.42.7 1.44.46 1.45.23.01-.37-.71-.82-.59-1.76zm.43-4.7a2.42 2.42 0 01-3.32-1.23c-1 3.4 2.77 3.69 3.42 3.4 1.59-.68.89-2.55-.1-2.17z" class="cls-3"/>
      <path d="M203.87-12v-9h-8.94v7.5H193a9 9 0 00-8.59-6.47 9 9 0 00-8.6 6.47h-1.58V-21h-8.93v9h6.78v2.72a8.91 8.91 0 00-6.65 8.64A8.91 8.91 0 00172.08 8v2.69h-6.78v7.5h-1.59a8.94 8.94 0 00-17.19 0h-1.86v-7.52h-6.77V8a8.9 8.9 0 006.64-8.65 8.9 8.9 0 00-6.64-8.64V-12h6.77v-9h-8.94v7.5h-1.59a9 9 0 00-8.59-6.47 9 9 0 00-8.6 6.47H115V-21h-8.9v9h7.25v2.61a9 9 0 00-7.07 8.75 9 9 0 007.07 8.76v2.58h-7.25v8.94h8.9v-7.57h1.89a8.94 8.94 0 0017.22 0h1.52v7.58h7.25v2.61a9 9 0 000 17.5v2.59h-7.25v7.57h-1.52a8.94 8.94 0 00-17.22 0H115v-7.54h-8.9v8.94h7.25v2.58a9 9 0 000 17.51V74h-7.25v9h8.9v-7.5h1.9a8.94 8.94 0 0017.19 0h1.59V83h8.94v-9h-6.77v-2.7a8.95 8.95 0 000-17.29v-2.69h6.77v-7.57h1.84a8.94 8.94 0 0017.22 0h1.58v7.54h6.78V54a8.94 8.94 0 000 17.29V74h-6.74v9h8.95v-7.5h1.58a8.94 8.94 0 0017.19 0h1.91V83h8.94v-9h-7.25v-2.59a9 9 0 000-17.51v-2.58h7.25v-8.94h-8.94v7.54H193a8.94 8.94 0 00-17.22 0h-1.57v-7.54h-6.78v-2.72a8.94 8.94 0 000-17.29v-2.72h6.78v-7.58h1.57a8.94 8.94 0 0017.22 0h1.89v7.54h8.94v-8.94h-7.25V8.09a9 9 0 007.06-8.76 9 9 0 00-7.06-8.75V-12zm-6.94-7h4.94v5h-4.94zM113-14h-4.9v-5h4.9zm0 31.65h-4.9v-4.98h4.9zm0 31.71h-4.9v-4.98h4.9zM113 81h-4.9v-5h4.9zm83.93-5h4.94v5h-4.94zm0-31.65h4.94v4.94h-4.94zm0-31.71h4.94v4.94h-4.94zM167.31-14v-5h4.93v5h-4.93zm0 31.65v-4.9h4.93v4.9zm-29.59 0v-4.9h4.89v4.9zm0-36.58h4.94V-14h-4.94zm-5.09 29l-.41 1.46a6.94 6.94 0 01-13.36 0l-.41-1.46h-3.1v-3.6l-1.58-.34a7 7 0 01-5.48-6.8 7 7 0 015.48-6.79l1.58-.34v-3.67h3.1l.42-1.45a7 7 0 016.67-5 7 7 0 016.67 5l.42 1.45h3.26v3.7l1.49.4a6.92 6.92 0 015.15 6.7A6.92 6.92 0 01137.38 6l-1.49.4v3.63h-3.26zm10 39.22h-4.89v-4.91h4.89zm0 26.74V81h-4.94v-5h4.94zm-.13-13.37a6.92 6.92 0 01-5.15 6.7l-1.49.4v3.7h-3.26l-.42 1.45a6.94 6.94 0 01-13.34 0l-.42-1.45h-3.1v-3.67l-1.58-.34a7 7 0 010-13.59l1.58-.34v-3.6h3.1l.41-1.46a6.94 6.94 0 0113.36 0l.41 1.46h3.26v3.63l1.49.4a6.92 6.92 0 015.18 6.71zm29.71-13.37h-4.93v-4.91h4.93zm0 31.67h-4.93V76h4.93zm3.58-29h1.52l.41-1.46a6.94 6.94 0 0113.36 0l.41 1.46h3.1v3.6l1.58.34a7 7 0 010 13.59l-1.58.34v3.67h-3.1l-.42 1.45a6.94 6.94 0 01-13.34 0l-.42-1.45h-3.26v-3.7l-1.49-.4a6.94 6.94 0 010-13.41l1.49-.4v-3.67h1.74zM172.11 31a6.93 6.93 0 01-5.11 6.72l-1.49.39v3.63h-3.31l-.41 1.47a6.94 6.94 0 01-13.36 0l-.43-1.47h-3.09v-3.59l-1.58-.34a7 7 0 010-13.59l1.58-.34v-3.67H148l.41-1.45a6.94 6.94 0 0113.34 0l.42 1.45h3.26v3.7l1.49.39a6.94 6.94 0 015.19 6.7zM201.68-.67a7 7 0 01-5.48 6.8l-1.58.34v3.6h-3.1l-.41 1.46a6.94 6.94 0 01-13.36 0l-.41-1.46h-3.26V6.44L172.59 6a6.92 6.92 0 01-5.15-6.71 6.92 6.92 0 015.15-6.7l1.49-.4v-3.7h3.26l.42-1.45a7 7 0 016.67-5 7 7 0 016.67 5l.42 1.45h3.1v3.71l1.58.34a7 7 0 015.48 6.79z" class="cls-3"/>
      <path d="M157.41 41.69c.16.17-.4 1.06-1.19.86a3.85 3.85 0 01-.47-.19 2.35 2.35 0 01-.81 2.21 2.24 2.24 0 01-.78-2.33 1.68 1.68 0 01-.56.22c-.85 0-1.38-.61-1.33-1s1.29.12 2.08-1c.24-.33.26-1 .65-1s.42.89.74 1.31c.58.84 1.4.65 1.67.92zm0-4.17c-.3-1-2.18-.46-1.78 1.23.16.69 2.67 3.51 4.78.66a2.43 2.43 0 01-3.04-1.89zm5.31-5.85c-1.69-.4-2.25 1.48-1.23 1.78a2.42 2.42 0 011.89 3c2.81-2.11-.01-4.62-.7-4.78zm-7.14-8.31c-.61 1.63 1.17 2.43 1.61 1.46a2.42 2.42 0 013.22-1.47c-1.75-3.11-4.62-.65-4.87.01zm-1.22 15.33c.62-1.63-1.17-2.43-1.6-1.46a2.42 2.42 0 01-3.22 1.48c1.67 3.1 4.53.64 4.78-.02zm8.3-8.29c.67-.25 3.12-3.11 0-4.82a2.42 2.42 0 01-1.48 3.22c-.99.43-.18 2.2 1.44 1.6zm-11.75.6a4 4 0 104-4 4 4 0 00-4 4zm1.58-6.48c.3 1 2.18.46 1.79-1.23-.16-.69-2.67-3.5-4.78-.66a2.42 2.42 0 012.99 1.9zm1.63-3.34c.33.42.25 1.28.75 1.31s.41-.65.65-1c.78-1.07 2-.63 2.07-1s-.47-1-1.32-1a1.52 1.52 0 00-.57.21 2.21 2.21 0 00-.78-2.32 2.34 2.34 0 00-.8 2.21 2.86 2.86 0 00-.48-.2c-.79-.2-1.34.69-1.18.86s1.09.2 1.66.94zm-6.89 9.17c1.7.39 2.26-1.49 1.23-1.79a2.42 2.42 0 01-1.89-3c-2.84 2.13-.03 4.64.66 4.8zm18.94-.12a1.65 1.65 0 00.22-.57c.05-.84-.61-1.38-1-1.32s.12 1.29-1 2.08c-.33.24-1 .26-1 .65s.89.41 1.31.74c.75.58.56 1.4.83 1.66s1.06-.39.86-1.18a3.85 3.85 0 00-.19-.47 2.37 2.37 0 002.3-.82 2.24 2.24 0 00-2.33-.76zm-18.88 1.38c-.66.25-3.11 3.12 0 4.82a2.41 2.41 0 011.47-3.21c.97-.43.16-2.22-1.47-1.6zm-.86-.67c0-.5-.89-.42-1.31-.75-.74-.57-.55-1.4-.83-1.66s-1.06.39-.86 1.18a4 4 0 00.2.48 2.34 2.34 0 00-2.21.8 2.23 2.23 0 002.32.78 1.52 1.52 0 00-.21.57c-.05.84.6 1.38 1 1.32s-.11-1.29 1-2.07c.26-.23.93-.25.9-.59zm-21.88-41.43c.32.42.24 1.28.74 1.31s.41-.64.65-1c.79-1.07 2-.63 2.08-1s-.48-1-1.33-1a1.66 1.66 0 00-.56.21 2.23 2.23 0 00-.78-2.32 2.35 2.35 0 00-.81 2.21 3.9 3.9 0 00-.47-.2c-.79-.2-1.35.7-1.19.86s1.12.19 1.67.93zm8.5 9.21c.66-.25 3.11-3.11 0-4.82a2.43 2.43 0 01-1.47 3.22c-.97.43-.16 2.22 1.47 1.6zm3.55-.16a1.66 1.66 0 00.21-.56c.05-.85-.6-1.38-1-1.33s.11 1.29-1 2.08c-.34.24-1 .26-1 .65s.89.42 1.31.74c.74.58.55 1.4.83 1.67s1.06-.4.86-1.19c0-.09-.16-.39-.2-.47a2.35 2.35 0 002.21-.81 2.23 2.23 0 00-2.22-.78zM133.11 0c-1.7-.4-2.26 1.48-1.23 1.78a2.43 2.43 0 011.89 3c2.84-2.12.03-4.63-.66-4.78zm-5.31 5.84c-.3-1-2.18-.46-1.79 1.24.16.68 2.67 3.5 4.78.65a2.42 2.42 0 01-2.99-1.89zm0 4.17c-.26-.27-1.09-.08-1.66-.83-.33-.42-.25-1.27-.75-1.31s-.41.65-.65 1c-.78 1.08-2 .64-2.07 1s.47 1 1.32 1a1.73 1.73 0 00.57-.22 2.24 2.24 0 00.78 2.33 2.34 2.34 0 00.8-2.21 4 4 0 00.48.19c.82.11 1.38-.78 1.21-.96zM126-8.32c-.62 1.63 1.17 2.44 1.6 1.46a2.43 2.43 0 013.22-1.47c-1.74-3.1-4.6-.67-4.82.01zM114.16.1a1.71 1.71 0 00-.21.57c0 .85.61 1.38 1 1.32s-.11-1.29 1-2.07c.33-.24 1-.26 1-.65s-.9-.42-1.31-.75c-.75-.57-.56-1.4-.83-1.66s-1.06.39-.86 1.18a4 4 0 00.19.48 2.34 2.34 0 00-2.21.8 2.23 2.23 0 002.23.78zm3.55-.16c-.66.25-3.11 3.12 0 4.82a2.41 2.41 0 011.48-3.21c.96-.44.15-2.22-1.48-1.61zm-.06-1.26c1.7.39 2.26-1.49 1.24-1.79a2.42 2.42 0 01-1.89-3c-2.85 2.11 0 4.63.65 4.79zm7.1 8.32c.61-1.62-1.17-2.43-1.61-1.46A2.42 2.42 0 01119.92 7c1.71 3.13 4.58.68 4.83 0zm4.63-7.68a4 4 0 00-4-4 4 4 0 00-4 4 4 4 0 004 4 4 4 0 004-3.99zm-6.46-6.48c.3 1 2.18.47 1.78-1.23-.16-.69-2.67-3.5-4.78-.66a2.44 2.44 0 013 1.9zm62.35-1.23c-.4 1.7 1.48 2.26 1.78 1.23A2.43 2.43 0 01190-9c-2.06-2.88-4.57-.07-4.73.62zm-2.88 1.52c.44 1 2.23.17 1.61-1.46-.25-.66-3.11-3.11-4.82 0a2.41 2.41 0 013.21 1.47zm-9.13 7a2.76 2.76 0 00-.2.47c-.2.79.69 1.35.86 1.19s.09-1.09.83-1.67c.42-.32 1.28-.24 1.31-.74s-.65-.41-1-.65c-1.07-.79-.63-2-1-2.08s-1 .48-1 1.33a1.47 1.47 0 00.21.56 2.21 2.21 0 00-2.32.78 2.35 2.35 0 002.31.83zm11.94 8.7c-.25-.33-.27-1-.66-1s-.41.89-.74 1.31c-.58.75-1.4.56-1.66.83s.39 1.06 1.18.86a3.85 3.85 0 00.47-.19 2.37 2.37 0 00.81 2.21 2.24 2.24 0 00.78-2.33 1.65 1.65 0 00.57.22c.84.05 1.38-.61 1.32-1s-1.27.19-2.07-.89zM184 7.08c.39-1.7-1.49-2.26-1.79-1.24a2.42 2.42 0 01-3 1.89c2.07 2.85 4.59.03 4.79-.65zm4.67-7.75a4 4 0 00-4-4 4 4 0 00-4 4 4 4 0 004 4 4 4 0 003.96-4zM176.86 0c-.69.16-3.5 2.67-.66 4.77a2.42 2.42 0 011.89-3c1.02-.3.46-2.18-1.23-1.77zm15.45-1.31c.69-.17 3.51-2.69.69-4.79a2.42 2.42 0 01-1.89 3c-1.05.29-.49 2.17 1.2 1.78zm-5.48 6.87c-.44-1-2.23-.16-1.61 1.46.25.67 3.12 3.12 4.82 0a2.41 2.41 0 01-3.21-1.47zm4-4a2.41 2.41 0 011.48 3.21c3.1-1.7.64-4.57 0-4.82-1.69-.62-2.49 1.16-1.52 1.6zm2.32-2.28c0 .39.65.41 1 .65 1.08.78.64 2 1 2.07s1-.47 1-1.32a1.73 1.73 0 00-.35-.58 2.24 2.24 0 002.33-.78 2.34 2.34 0 00-2.21-.8 4 4 0 00.19-.48c.2-.79-.69-1.34-.86-1.18s-.08 1.09-.83 1.66c-.42.33-1.27.25-1.31.75zm-14.77-2.16a2.42 2.42 0 01-1.47-3.22c-3.11 1.71-.65 4.57 0 4.82 1.64.62 2.44-1.17 1.47-1.6zm5.62-7.28c.25.34.27 1 .66 1s.41-.89.74-1.31c.58-.74 1.4-.55 1.66-.83s-.39-1.06-1.18-.86a3.9 3.9 0 00-.47.2 2.37 2.37 0 00-.81-2.21 2.23 2.23 0 00-.78 2.32 1.63 1.63 0 00-.57-.21c-.84-.05-1.38.6-1.32 1s1.31-.17 2.07.9zm-60.88 66.6c.44 1 2.22.16 1.61-1.46-.25-.67-3.12-3.12-4.83 0a2.42 2.42 0 013.24 1.46zm1.56 13.93c.4-1.7-1.48-2.26-1.78-1.23a2.44 2.44 0 01-3 1.89c2.1 2.84 4.64.03 4.8-.66zm1.24 1.78c-.24-.34-.26-1-.65-1s-.42.89-.74 1.31c-.58.74-1.4.56-1.67.83s.4 1.06 1.19.86a3.9 3.9 0 00.47-.2 2.35 2.35 0 00.81 2.21 2.22 2.22 0 00.78-2.32 1.47 1.47 0 00.56.21c.85.05 1.38-.6 1.33-1s-1.27.17-2.06-.9zm-9.08-9.43c0-.39-.65-.41-1-.65-1.08-.78-.64-2-1-2.07s-1 .47-1 1.32a1.71 1.71 0 00.21.57 2.23 2.23 0 00-2.32.78 2.34 2.34 0 002.21.8 4 4 0 00-.19.48c-.2.79.69 1.34.86 1.18s.08-1.09.83-1.66c.56-.33 1.38-.25 1.42-.75zm.79.59c-.68.16-3.5 2.67-.65 4.78a2.42 2.42 0 011.89-3c1.04-.29.48-2.17-1.22-1.78zm1.53-2.87a2.41 2.41 0 01-1.48-3.21c-3.1 1.7-.65 4.57 0 4.82 1.66.61 2.47-1.17 1.5-1.61zm8.67-8.44c.16-.17-.39-1.06-1.18-.86a4 4 0 00-.48.19 2.34 2.34 0 00-.8-2.21 2.24 2.24 0 00-.78 2.33 1.73 1.73 0 00-.57-.22c-.85-.05-1.38.61-1.32 1s1.29-.12 2.07 1c.24.33.26 1 .65 1s.42-.89.75-1.31c.57-.86 1.4-.67 1.66-.92zm-6.49 10.68a4 4 0 104-4 4 4 0 00-4 3.98zm6.23 6.19c-.43-1-2.22-.17-1.6 1.46.25.66 3.11 3.11 4.82 0a2.43 2.43 0 01-3.22-1.48zm9.14-7c0-.08.17-.38.2-.47.2-.79-.7-1.34-.86-1.19s-.09 1.09-.83 1.67c-.42.32-1.28.25-1.31.74s.64.41 1 .65c1.07.79.63 2 1 2.08s1-.48 1-1.33a1.66 1.66 0 00-.21-.56 2.23 2.23 0 002.32-.78 2.35 2.35 0 00-2.31-.84zm-3.66 1.43c-1.63-.62-2.44 1.17-1.46 1.6a2.43 2.43 0 011.47 3.22c3.1-1.74.65-4.6-.01-4.85zm-7-8.35c-.39 1.69 1.49 2.25 1.79 1.23a2.42 2.42 0 013-1.89c-2.16-2.88-4.67-.06-4.84.63zm5.87 5.3c-1 .3-.47 2.18 1.23 1.78.69-.16 3.5-2.67.66-4.77a2.43 2.43 0 01-1.93 2.96zm48.71 2.44a4 4 0 104-4 4 4 0 00-4.04 3.97zm6.68-10.48c.06-.36-.48-1-1.32-1a1.65 1.65 0 00-.57.22 2.24 2.24 0 00-.78-2.33 2.37 2.37 0 00-.81 2.21 3.85 3.85 0 00-.47-.19c-.79-.2-1.34.69-1.18.86s1.08.08 1.66.83c.33.42.25 1.27.74 1.31s.41-.65.66-1c.76-1.06 1.98-.62 2.03-.94zM184 70.31c.62-1.63-1.17-2.43-1.61-1.46a2.41 2.41 0 01-3.21 1.47c1.71 3.1 4.57.68 4.82-.01zM185.22 55c-.62 1.62 1.17 2.43 1.61 1.46A2.41 2.41 0 01190 55c-1.66-3.14-4.53-.69-4.78 0zm.2 17.5c-.33-.42-.25-1.28-.74-1.31s-.41.64-.66 1c-.78 1.07-2 .63-2.07 1s.48 1 1.32 1a1.46 1.46 0 00.57-.21 2.22 2.22 0 00.78 2.32 2.37 2.37 0 00.81-2.21 3.9 3.9 0 00.47.2c.79.2 1.34-.7 1.18-.86s-1.08-.21-1.66-.95zm-3.25-16.33c.3 1 2.18.46 1.79-1.23-.16-.69-2.68-3.51-4.78-.66a2.42 2.42 0 012.99 1.87zm-5.25 7.12c-.66.25-3.12 3.11 0 4.82a2.42 2.42 0 011.47-3.22c.96-.45.16-2.24-1.47-1.62zm-.86-.68c0-.49-.89-.42-1.31-.74-.74-.58-.56-1.4-.83-1.67s-1.06.4-.86 1.19a2.76 2.76 0 00.2.47 2.35 2.35 0 00-2.21.81 2.21 2.21 0 002.32.78 1.47 1.47 0 00-.21.56c-.06.85.6 1.38 1 1.33s-.11-1.29 1-2.08c.25-.26.93-.26.9-.67zm11 6.55c-.3-1-2.18-.47-1.78 1.23.16.69 2.67 3.5 4.77.66a2.43 2.43 0 01-3-1.91zm5.2-7.09c.66-.25 3.12-3.12 0-4.82a2.41 2.41 0 01-1.48 3.21c-.96.42-.16 2.2 1.47 1.59zm3.55-.16a1.73 1.73 0 00.22-.57c0-.85-.61-1.38-1-1.32s.12 1.29-1 2.07c-.33.24-1 .26-1 .65s.89.42 1.31.75c.75.57.56 1.4.83 1.66s1.06-.39.86-1.18a4 4 0 00-.19-.48 2.34 2.34 0 002.21-.8 2.24 2.24 0 00-2.25-.8zm-18.95.09c1.69.4 2.25-1.48 1.23-1.78a2.42 2.42 0 01-1.89-3c-2.84 2.11-.03 4.62.66 4.78zm15.45 1.31c-1.69-.39-2.25 1.49-1.23 1.79a2.42 2.42 0 011.89 3c2.85-2.1.03-4.63-.66-4.79z" class="cls-2"/>
      <path d="M157.75 31a2.82 2.82 0 11-2.82-2.82 2.82 2.82 0 012.82 2.82zM125.36-3.49a2.82 2.82 0 00-2.82 2.82 2.82 2.82 0 002.82 2.82 2.82 2.82 0 002.82-2.82 2.83 2.83 0 00-2.82-2.82zm59.25 5.64a2.82 2.82 0 002.82-2.82 2.82 2.82 0 00-2.82-2.82 2.82 2.82 0 00-2.82 2.82 2.82 2.82 0 002.82 2.82zm-59.25 57.69a2.82 2.82 0 102.82 2.82 2.82 2.82 0 00-2.82-2.82zm59.25 0a2.82 2.82 0 102.82 2.82 2.82 2.82 0 00-2.82-2.82z" class="cls-3"/>
    </g>
    <rect width="5.17" height="5.17" x="242.82" y="25.8" class="cls-7"/>
    <rect width="5.17" height="5.17" x="242.82" y="31.01" class="cls-3"/>
    <rect width="5.17" height="5.17" x="211.85" y="56.82" class="cls-9"/>
    <rect width="5.17" height="5.17" x="217.03" y="56.82" class="cls-3"/>
    <rect width="5.17" height="5.17" x="211.85" class="cls-2"/>
    <rect width="5.17" height="5.17" x="216.99" class="cls-7"/>
    <rect width="5.17" height="5.17" x="185.99" y="25.78" class="cls-2"/>
    <rect width="5.17" height="5.17" x="185.99" y="30.95" class="cls-9"/>
    <rect width="5.17" height="20.67" x="242.82" y="36.16" class="cls-9"/>
    <rect width="20.67" height="5.17" x="222.15" y="56.82" class="cls-9"/>
    <rect width="5.17" height="20.67" x="216.99" y="36.16" class="cls-9"/>
    <rect width="5.17" height="20.67" x="185.99" y="36.16" class="cls-3"/>
    <rect width="20.67" height="5.17" x="191.15" y="56.82" class="cls-3"/>
    <rect width="5.17" height="20.67" x="216.99" y="5.17" class="cls-3"/>
    <rect width="5.17" height="20.67" x="242.82" y="5.17" class="cls-3"/>
    <rect width="20.67" height="5.17" x="222.15" class="cls-3"/>
    <rect width="20.67" height="5.17" x="191.15" class="cls-9"/>
    <rect width="5.17" height="20.67" x="211.82" y="5.17" class="cls-9"/>
    <rect width="5.17" height="20.67" x="185.99" y="5.17" class="cls-9"/>
    <rect width="20.67" height="20.67" x="191.15" y="5.17" class="cls-7"/>
    <rect width="20.67" height="20.67" x="222.15" y="5.17" class="cls-2"/>
    <rect width="20.67" height="5.16" x="222.15" y="25.83" class="cls-3"/>
    <rect width="20.67" height="20.67" x="222.15" y="36.16" class="cls-7"/>
    <rect width="20.67" height="5.17" x="222.15" y="30.99" class="cls-9"/>
    <rect width="5.17" height="20.67" x="211.82" y="36.16" class="cls-3"/>
    <rect width="20.67" height="20.67" x="191.15" y="36.16" class="cls-2"/>
    <rect width="20.67" height="5.16" x="191.15" y="25.83" class="cls-9"/>
    <rect width="20.67" height="5.17" x="191.15" y="30.99" class="cls-3"/>
    <polygon points="211.83 25.84 217 31.01 217 25.84 211.83 25.84" class="cls-3"/>
    <polygon points="211.83 25.84 211.83 31.01 217 31.01 211.83 25.84" class="cls-2"/>
    <polygon points="216.97 30.98 222.14 36.15 222.14 30.98 216.97 30.98" class="cls-2"/>
    <polygon points="216.97 30.98 216.97 36.15 222.14 36.15 216.97 30.98" class="cls-3"/>
    <polygon points="242.78 56.79 247.94 61.95 247.94 56.79 242.78 56.79" class="cls-2"/>
    <polygon points="242.78 56.79 242.78 61.95 247.94 61.95 242.78 56.79" class="cls-3"/>
    <polygon points="216.97 31.02 222.14 25.86 216.97 25.86 216.97 31.02" class="cls-2"/>
    <polygon points="216.97 31.02 222.14 31.02 222.14 25.86 216.97 31.02" class="cls-9"/>
    <polygon points="242.82 5.17 247.98 .01 242.82 .01 242.82 5.17" class="cls-2"/>
    <polygon points="242.82 5.17 247.98 5.17 247.98 .01 242.82 5.17" class="cls-9"/>
    <polygon points="211.75 36.14 216.92 30.97 211.75 30.97 211.75 36.14" class="cls-9"/>
    <polygon points="211.75 36.14 216.92 36.14 216.92 30.97 211.75 36.14" class="cls-2"/>
    <polygon points="185.98 61.99 191.15 56.83 185.98 56.83 185.98 61.99" class="cls-9"/>
    <polygon points="185.98 61.99 191.15 61.99 191.15 56.83 185.98 61.99" class="cls-2"/>
    <polygon points="185.99 0 191.15 5.17 191.15 0 185.99 0" class="cls-3"/>
    <polygon points="185.99 0 185.99 5.17 191.15 5.17 185.99 0" class="cls-2"/>
  </g>
</svg>
